<svg width="497" height="122" viewBox="0 0 497 122" fill="none" xmlns="http://www.w3.org/2000/svg">
<path d="M143.038 25.544C143.038 27.584 142.51 29.456 141.454 31.16C140.398 32.864 138.862 34.256 136.846 35.336C134.83 36.416 132.43 37.052 129.646 37.244L128.098 45.92C127.498 49.256 125.866 50.924 123.202 50.924C121.738 50.924 120.382 50.492 119.134 49.628C117.91 48.764 116.926 47.444 116.182 45.668C115.438 43.892 115.066 41.708 115.066 39.116C115.066 34.244 115.846 30.116 117.406 26.732C118.99 23.324 121.102 20.78 123.742 19.1C126.406 17.396 129.334 16.544 132.526 16.544C134.782 16.544 136.69 16.94 138.25 17.732C139.834 18.524 141.022 19.604 141.814 20.972C142.63 22.316 143.038 23.84 143.038 25.544ZM130.294 33.536C135.214 32.912 137.674 30.356 137.674 25.868C137.674 24.284 137.146 23 136.09 22.016C135.058 21.008 133.45 20.504 131.266 20.504C128.794 20.504 126.634 21.284 124.786 22.844C122.962 24.404 121.546 26.576 120.538 29.36C119.554 32.12 119.062 35.276 119.062 38.828C119.062 40.316 119.206 41.636 119.494 42.788C119.806 43.94 120.19 44.84 120.646 45.488C121.126 46.112 121.582 46.424 122.014 46.424C122.614 46.424 123.07 45.596 123.382 43.94L124.57 37.136C123.634 36.992 123.226 36.932 123.346 36.956C122.626 36.836 122.158 36.62 121.942 36.308C121.726 35.972 121.618 35.552 121.618 35.048C121.618 34.52 121.762 34.1 122.05 33.788C122.362 33.476 122.782 33.32 123.31 33.32C123.55 33.32 123.73 33.332 123.85 33.356C124.426 33.452 124.87 33.512 125.182 33.536C125.494 31.664 125.938 29.156 126.514 26.012C126.658 25.196 126.982 24.62 127.486 24.284C128.014 23.924 128.626 23.744 129.322 23.744C130.114 23.744 130.678 23.9 131.014 24.212C131.374 24.5 131.554 24.968 131.554 25.616C131.554 26 131.53 26.312 131.482 26.552L130.294 33.536ZM157.751 38.972C158.063 38.972 158.303 39.116 158.471 39.404C158.663 39.692 158.759 40.088 158.759 40.592C158.759 41.552 158.531 42.296 158.075 42.824C157.043 44.096 155.915 45.14 154.691 45.956C153.491 46.772 152.123 47.18 150.587 47.18C148.475 47.18 146.903 46.22 145.871 44.3C144.863 42.38 144.359 39.896 144.359 36.848C144.359 33.92 144.731 30.584 145.475 26.84C146.243 23.096 147.359 19.88 148.823 17.192C150.311 14.504 152.075 13.16 154.115 13.16C155.267 13.16 156.167 13.7 156.815 14.78C157.487 15.836 157.823 17.36 157.823 19.352C157.823 22.208 157.031 25.52 155.447 29.288C153.863 33.056 151.715 36.788 149.003 40.484C149.171 41.468 149.447 42.176 149.831 42.608C150.215 43.016 150.719 43.22 151.343 43.22C152.327 43.22 153.191 42.944 153.935 42.392C154.679 41.816 155.627 40.844 156.779 39.476C157.067 39.14 157.391 38.972 157.751 38.972ZM153.323 16.724C152.771 16.724 152.147 17.72 151.451 19.712C150.755 21.704 150.143 24.176 149.615 27.128C149.087 30.08 148.799 32.912 148.751 35.624C150.455 32.816 151.811 30.008 152.819 27.2C153.827 24.368 154.331 21.788 154.331 19.46C154.331 17.636 153.995 16.724 153.323 16.724ZM159.926 47.18C158.438 47.18 157.25 46.64 156.362 45.56C155.474 44.48 155.03 43.064 155.03 41.312C155.03 39.392 155.474 37.58 156.362 35.876C157.25 34.148 158.426 32.768 159.89 31.736C161.378 30.68 162.95 30.152 164.606 30.152C165.134 30.152 165.482 30.26 165.65 30.476C165.842 30.668 165.998 31.028 166.118 31.556C166.622 31.46 167.15 31.412 167.702 31.412C168.878 31.412 169.466 31.832 169.466 32.672C169.466 33.176 169.286 34.376 168.926 36.272C168.374 39.032 168.098 40.952 168.098 42.032C168.098 42.392 168.182 42.68 168.35 42.896C168.542 43.112 168.782 43.22 169.07 43.22C169.526 43.22 170.078 42.932 170.726 42.356C171.374 41.756 172.25 40.796 173.354 39.476C173.642 39.14 173.966 38.972 174.326 38.972C174.638 38.972 174.878 39.116 175.046 39.404C175.238 39.692 175.334 40.088 175.334 40.592C175.334 41.552 175.106 42.296 174.65 42.824C173.666 44.048 172.622 45.08 171.518 45.92C170.414 46.76 169.346 47.18 168.314 47.18C167.522 47.18 166.79 46.916 166.118 46.388C165.47 45.836 164.978 45.092 164.642 44.156C163.394 46.172 161.822 47.18 159.926 47.18ZM161.222 43.544C161.75 43.544 162.254 43.232 162.734 42.608C163.214 41.984 163.562 41.156 163.778 40.124L165.11 33.5C164.102 33.524 163.166 33.908 162.302 34.652C161.462 35.372 160.79 36.332 160.286 37.532C159.782 38.732 159.53 40.004 159.53 41.348C159.53 42.092 159.674 42.644 159.962 43.004C160.274 43.364 160.694 43.544 161.222 43.544ZM179.104 47.972C177.856 47.972 176.896 47.684 176.224 47.108C175.576 46.532 175.252 45.884 175.252 45.164C175.252 44.54 175.48 44 175.936 43.544C176.392 43.088 177.064 42.86 177.952 42.86C178.264 42.86 178.624 42.896 179.032 42.968C179.464 43.016 179.788 43.052 180.004 43.076C179.98 42.452 179.836 41.864 179.572 41.312C179.332 40.76 179.02 40.232 178.636 39.728C178.252 39.2 177.892 38.744 177.556 38.36C176.812 39.776 176.068 40.952 175.324 41.888C174.604 42.824 173.812 43.712 172.948 44.552C172.516 44.984 172.06 45.2 171.58 45.2C171.196 45.2 170.884 45.068 170.644 44.804C170.404 44.516 170.284 44.168 170.284 43.76C170.284 43.28 170.452 42.836 170.788 42.428L171.256 41.852C172.576 40.22 173.572 38.876 174.244 37.82C174.652 37.124 175.132 36.2 175.684 35.048C176.236 33.872 176.776 32.66 177.304 31.412C177.76 30.356 178.708 29.828 180.148 29.828C180.82 29.828 181.288 29.888 181.552 30.008C181.816 30.128 181.948 30.32 181.948 30.584C181.948 30.728 181.9 30.956 181.804 31.268C181.708 31.58 181.576 31.892 181.408 32.204C180.976 33.068 180.76 33.8 180.76 34.4C180.76 34.76 180.88 35.156 181.12 35.588C181.384 36.02 181.78 36.56 182.308 37.208C183.076 38.216 183.652 39.08 184.036 39.8C184.444 40.496 184.648 41.264 184.648 42.104C184.648 42.344 184.624 42.68 184.576 43.112C185.752 42.656 187.132 41.444 188.716 39.476C189.004 39.14 189.328 38.972 189.688 38.972C190 38.972 190.24 39.116 190.408 39.404C190.6 39.692 190.696 40.088 190.696 40.592C190.696 41.504 190.468 42.248 190.012 42.824C188.812 44.312 187.66 45.332 186.556 45.884C185.476 46.412 184.132 46.7 182.524 46.748C181.564 47.564 180.424 47.972 179.104 47.972ZM203.827 38.972C204.139 38.972 204.379 39.116 204.547 39.404C204.739 39.692 204.835 40.088 204.835 40.592C204.835 41.552 204.607 42.296 204.151 42.824C203.119 44.096 201.991 45.14 200.767 45.956C199.543 46.772 198.139 47.18 196.555 47.18C191.659 47.18 189.211 43.736 189.211 36.848C189.211 35.792 189.247 34.724 189.319 33.644H187.915C187.195 33.644 186.703 33.512 186.439 33.248C186.199 32.984 186.079 32.564 186.079 31.988C186.079 30.644 186.619 29.972 187.699 29.972H189.751C190.159 27.332 190.783 24.92 191.623 22.736C192.463 20.552 193.471 18.812 194.647 17.516C195.847 16.22 197.131 15.572 198.499 15.572C199.507 15.572 200.299 16.016 200.875 16.904C201.451 17.792 201.739 18.908 201.739 20.252C201.739 23.972 200.179 27.212 197.059 29.972H201.091C201.475 29.972 201.751 30.056 201.919 30.224C202.087 30.392 202.171 30.704 202.171 31.16C202.171 32.816 200.815 33.644 198.103 33.644H193.711C193.663 34.844 193.639 35.78 193.639 36.452C193.639 38.948 193.927 40.7 194.503 41.708C195.103 42.716 196.039 43.22 197.311 43.22C198.343 43.22 199.255 42.908 200.047 42.284C200.839 41.66 201.775 40.724 202.855 39.476C203.143 39.14 203.467 38.972 203.827 38.972ZM197.527 19.028C197.167 19.028 196.759 19.484 196.303 20.396C195.871 21.284 195.451 22.532 195.043 24.14C194.659 25.724 194.335 27.488 194.071 29.432C195.487 28.208 196.543 26.84 197.239 25.328C197.959 23.792 198.319 22.4 198.319 21.152C198.319 19.736 198.055 19.028 197.527 19.028ZM206.62 27.848C205.612 27.848 204.856 27.62 204.352 27.164C203.848 26.684 203.596 26.024 203.596 25.184C203.596 24.344 203.92 23.648 204.568 23.096C205.24 22.52 206.068 22.232 207.052 22.232C207.94 22.232 208.66 22.448 209.212 22.88C209.764 23.312 210.04 23.924 210.04 24.716C210.04 25.676 209.728 26.444 209.104 27.02C208.48 27.572 207.652 27.848 206.62 27.848ZM206.332 47.18C204.772 47.18 203.632 46.628 202.912 45.524C202.216 44.42 201.868 42.956 201.868 41.132C201.868 40.052 202 38.672 202.264 36.992C202.552 35.288 202.912 33.704 203.344 32.24C203.56 31.472 203.848 30.944 204.208 30.656C204.568 30.368 205.144 30.224 205.936 30.224C207.16 30.224 207.772 30.632 207.772 31.448C207.772 32.048 207.544 33.44 207.088 35.624C206.512 38.264 206.224 40.052 206.224 40.988C206.224 41.708 206.32 42.26 206.512 42.644C206.704 43.028 207.028 43.22 207.484 43.22C207.916 43.22 208.456 42.92 209.104 42.32C209.752 41.72 210.616 40.772 211.696 39.476C211.984 39.14 212.308 38.972 212.668 38.972C212.98 38.972 213.22 39.116 213.388 39.404C213.58 39.692 213.676 40.088 213.676 40.592C213.676 41.552 213.448 42.296 212.992 42.824C210.616 45.728 208.396 47.18 206.332 47.18ZM217.459 47.18C215.179 47.18 213.391 46.52 212.095 45.2C210.823 43.856 210.187 42.092 210.187 39.908C210.187 37.964 210.571 36.26 211.339 34.796C212.107 33.332 213.103 32.204 214.327 31.412C215.551 30.62 216.835 30.224 218.179 30.224C219.499 30.224 220.519 30.62 221.239 31.412C221.983 32.18 222.355 33.176 222.355 34.4C222.355 35.408 222.127 36.26 221.671 36.956C221.239 37.652 220.663 38 219.943 38C219.487 38 219.115 37.892 218.827 37.676C218.563 37.46 218.431 37.16 218.431 36.776C218.431 36.608 218.455 36.416 218.503 36.2C218.551 35.984 218.587 35.828 218.611 35.732C218.731 35.372 218.791 35.036 218.791 34.724C218.791 34.412 218.707 34.172 218.539 34.004C218.395 33.836 218.179 33.752 217.891 33.752C217.339 33.752 216.823 34.004 216.343 34.508C215.863 34.988 215.479 35.648 215.191 36.488C214.903 37.328 214.759 38.252 214.759 39.26C214.759 40.628 215.035 41.672 215.587 42.392C216.163 43.088 216.967 43.436 217.999 43.436C218.815 43.436 219.559 43.196 220.231 42.716C220.927 42.236 221.611 41.528 222.283 40.592C222.571 40.232 222.895 40.052 223.255 40.052C223.567 40.052 223.807 40.196 223.975 40.484C224.167 40.772 224.263 41.168 224.263 41.672C224.263 42.536 224.059 43.28 223.651 43.904C223.003 44.912 222.151 45.716 221.095 46.316C220.039 46.892 218.827 47.18 217.459 47.18Z" fill="#0B4773"/>
<path d="M114.967 92.377C116.627 93.3145 118.307 94.1641 120.006 94.9258C121.725 95.668 123.502 96.3027 125.338 96.8301C127.174 97.3379 129.098 97.7285 131.109 98.002C133.141 98.2754 135.299 98.4121 137.584 98.4121C140.338 98.4121 142.682 98.2363 144.615 97.8848C146.549 97.5137 148.121 97.0156 149.332 96.3906C150.562 95.7461 151.451 94.9844 151.998 94.1055C152.564 93.2266 152.848 92.2695 152.848 91.2344C152.848 89.5742 152.154 88.2656 150.768 87.3086C149.381 86.332 147.242 85.8438 144.352 85.8438C143.082 85.8438 141.744 85.9316 140.338 86.1074C138.932 86.2637 137.506 86.4395 136.061 86.6348C134.635 86.8301 133.219 87.0156 131.812 87.1914C130.426 87.3477 129.117 87.4258 127.887 87.4258C125.836 87.4258 123.863 87.1621 121.969 86.6348C120.094 86.1074 118.424 85.3164 116.959 84.2617C115.514 83.207 114.361 81.8887 113.502 80.3066C112.643 78.7246 112.213 76.8789 112.213 74.7695C112.213 73.5195 112.379 72.2793 112.711 71.0488C113.062 69.8184 113.609 68.6465 114.352 67.5332C115.113 66.4004 116.09 65.3555 117.281 64.3984C118.473 63.4219 119.908 62.582 121.588 61.8789C123.287 61.1758 125.24 60.6289 127.447 60.2383C129.674 59.8281 132.203 59.623 135.035 59.623C137.086 59.623 139.146 59.7402 141.217 59.9746C143.287 60.1895 145.299 60.502 147.252 60.9121C149.225 61.3223 151.119 61.8203 152.936 62.4062C154.752 62.9727 156.441 63.6074 158.004 64.3105L153.932 71.8105C152.643 71.2441 151.256 70.7266 149.771 70.2578C148.287 69.7695 146.734 69.3496 145.113 68.998C143.492 68.6465 141.812 68.373 140.074 68.1777C138.355 67.9629 136.598 67.8555 134.801 67.8555C132.242 67.8555 130.133 68.041 128.473 68.4121C126.832 68.7832 125.523 69.2617 124.547 69.8477C123.57 70.4141 122.887 71.0586 122.496 71.7812C122.125 72.4844 121.939 73.1875 121.939 73.8906C121.939 75.2578 122.555 76.3809 123.785 77.2598C125.016 78.1191 126.891 78.5488 129.41 78.5488C130.426 78.5488 131.588 78.4805 132.896 78.3438C134.225 78.1875 135.611 78.0215 137.057 77.8457C138.521 77.6699 140.006 77.5137 141.51 77.377C143.033 77.2207 144.508 77.1426 145.934 77.1426C148.629 77.1426 151.012 77.4453 153.082 78.0508C155.172 78.6562 156.92 79.5254 158.326 80.6582C159.732 81.7715 160.797 83.1289 161.52 84.7305C162.242 86.3125 162.604 88.0898 162.604 90.0625C162.604 92.6992 161.988 95.0527 160.758 97.123C159.547 99.1738 157.809 100.912 155.543 102.338C153.297 103.744 150.582 104.818 147.398 105.561C144.215 106.283 140.67 106.645 136.764 106.645C134.186 106.645 131.666 106.479 129.205 106.146C126.744 105.834 124.381 105.385 122.115 104.799C119.869 104.193 117.721 103.48 115.67 102.66C113.639 101.82 111.754 100.902 110.016 99.9062L114.967 92.377ZM171.744 71.4004H180.387V88.2754C180.387 89.877 180.562 91.3418 180.914 92.6699C181.266 93.9785 181.861 95.1016 182.701 96.0391C183.561 96.9766 184.693 97.709 186.1 98.2363C187.525 98.7441 189.293 98.998 191.402 98.998C192.398 98.998 193.404 98.8906 194.42 98.6758C195.455 98.4609 196.441 98.168 197.379 97.7969C198.316 97.4062 199.186 96.9473 199.986 96.4199C200.807 95.8926 201.51 95.3164 202.096 94.6914V71.4004H210.768V106H202.096V103.041C199.967 104.311 197.828 105.219 195.68 105.766C193.531 106.312 191.49 106.586 189.557 106.586C186.393 106.586 183.678 106.205 181.412 105.443C179.166 104.682 177.32 103.578 175.875 102.133C174.449 100.668 173.404 98.8809 172.74 96.7715C172.076 94.6426 171.744 92.2207 171.744 89.5059V71.4004ZM221.783 71.4297H230.455V76.4102C232.369 74.9844 234.391 73.7539 236.52 72.7188C238.648 71.6836 240.768 70.8926 242.877 70.3457L245.426 78.2852C242.086 78.6172 239.146 79.3691 236.607 80.541C234.088 81.6934 232.037 83.3242 230.455 85.4336V106H221.783V71.4297ZM257.32 111.859C258.414 112.25 259.527 112.572 260.66 112.826C261.793 113.1 262.887 113.314 263.941 113.471C265.016 113.646 266.041 113.764 267.018 113.822C267.994 113.9 268.863 113.939 269.625 113.939C271.93 113.939 273.932 113.656 275.631 113.09C277.35 112.543 278.775 111.801 279.908 110.863C281.061 109.926 281.92 108.832 282.486 107.582C283.053 106.352 283.336 105.043 283.336 103.656V102.162C282.594 102.67 281.725 103.158 280.729 103.627C279.732 104.096 278.639 104.506 277.447 104.857C276.256 105.209 274.986 105.492 273.639 105.707C272.311 105.922 270.934 106.029 269.508 106.029C266.676 106.029 264.059 105.609 261.656 104.77C259.254 103.91 257.174 102.719 255.416 101.195C253.658 99.6523 252.281 97.8066 251.285 95.6582C250.309 93.5098 249.82 91.127 249.82 88.5098C249.82 85.834 250.338 83.4121 251.373 81.2441C252.408 79.0566 253.834 77.1914 255.65 75.6484C257.486 74.1055 259.654 72.9141 262.154 72.0742C264.654 71.2344 267.369 70.8145 270.299 70.8145C271.549 70.8145 272.789 70.8926 274.02 71.0488C275.25 71.2051 276.422 71.4199 277.535 71.6934C278.668 71.9668 279.723 72.2988 280.699 72.6895C281.695 73.0605 282.574 73.4707 283.336 73.9199V71.4297H292.008V102.045C292.008 105.189 291.529 107.973 290.572 110.395C289.615 112.816 288.209 114.848 286.354 116.488C284.518 118.148 282.232 119.398 279.498 120.238C276.764 121.098 273.629 121.527 270.094 121.527C268.824 121.527 267.506 121.469 266.139 121.352C264.771 121.254 263.395 121.098 262.008 120.883C260.641 120.688 259.283 120.443 257.936 120.15C256.607 119.877 255.328 119.555 254.098 119.184L257.32 111.859ZM258.932 88.4219C258.932 89.8086 259.205 91.1172 259.752 92.3477C260.318 93.5586 261.119 94.623 262.154 95.541C263.189 96.4395 264.439 97.1523 265.904 97.6797C267.369 98.1875 269.02 98.4414 270.855 98.4414C272.047 98.4414 273.229 98.334 274.4 98.1191C275.592 97.8848 276.725 97.5625 277.799 97.1523C278.893 96.7422 279.908 96.2441 280.846 95.6582C281.803 95.0723 282.633 94.418 283.336 93.6953V82.2988C282.457 81.5957 281.529 81 280.553 80.5117C279.576 80.0234 278.58 79.623 277.564 79.3105C276.549 78.998 275.523 78.7734 274.488 78.6367C273.453 78.4805 272.447 78.4023 271.471 78.4023C269.479 78.4023 267.701 78.666 266.139 79.1934C264.596 79.7207 263.287 80.4434 262.213 81.3613C261.158 82.2598 260.348 83.3145 259.781 84.5254C259.215 85.7363 258.932 87.0352 258.932 88.4219ZM300.24 88.5977C300.24 86.2539 300.719 84.0176 301.676 81.8887C302.633 79.7402 304.01 77.8457 305.807 76.2051C307.604 74.5645 309.801 73.2559 312.398 72.2793C315.016 71.3027 317.984 70.8145 321.305 70.8145C324.605 70.8145 327.574 71.3125 330.211 72.3086C332.867 73.2852 335.113 74.6328 336.949 76.3516C338.805 78.0703 340.221 80.0918 341.197 82.416C342.193 84.7402 342.691 87.2305 342.691 89.8867C342.691 90.2188 342.682 90.5801 342.662 90.9707C342.662 91.3418 342.643 91.6836 342.604 91.9961H309.908C310.279 93.0312 310.875 93.9785 311.695 94.8379C312.535 95.6973 313.58 96.4395 314.83 97.0645C316.08 97.6895 317.525 98.1777 319.166 98.5293C320.807 98.8613 322.623 99.0273 324.615 99.0273C326.607 99.0273 328.59 98.8223 330.562 98.4121C332.535 97.9824 334.42 97.4453 336.217 96.8008L339.146 103.422C338.014 103.949 336.861 104.418 335.689 104.828C334.537 105.219 333.326 105.551 332.057 105.824C330.807 106.078 329.488 106.273 328.102 106.41C326.734 106.547 325.289 106.615 323.766 106.615C319.879 106.615 316.471 106.146 313.541 105.209C310.611 104.271 308.16 102.992 306.188 101.371C304.215 99.75 302.73 97.8457 301.734 95.6582C300.738 93.4707 300.24 91.1172 300.24 88.5977ZM333.492 85.2285C333.18 84.2715 332.691 83.3828 332.027 82.5625C331.383 81.7227 330.572 81 329.596 80.3945C328.619 79.7695 327.486 79.2812 326.197 78.9297C324.908 78.5781 323.492 78.4023 321.949 78.4023C320.309 78.4023 318.814 78.5879 317.467 78.959C316.119 79.3301 314.938 79.8281 313.922 80.4531C312.906 81.0781 312.057 81.8008 311.373 82.6211C310.709 83.4414 310.221 84.3105 309.908 85.2285H333.492ZM349.957 88.7148C349.957 86.2344 350.455 83.9102 351.451 81.7422C352.467 79.5742 353.902 77.6797 355.758 76.0586C357.633 74.4375 359.889 73.1582 362.525 72.2207C365.182 71.2832 368.16 70.8145 371.461 70.8145C374.762 70.8145 377.73 71.2832 380.367 72.2207C383.023 73.1582 385.279 74.4375 387.135 76.0586C389.01 77.6797 390.445 79.5742 391.441 81.7422C392.457 83.9102 392.965 86.2344 392.965 88.7148C392.965 91.1953 392.457 93.5195 391.441 95.6875C390.445 97.8555 389.01 99.75 387.135 101.371C385.279 102.992 383.023 104.271 380.367 105.209C377.73 106.146 374.762 106.615 371.461 106.615C368.16 106.615 365.182 106.146 362.525 105.209C359.889 104.271 357.633 102.992 355.758 101.371C353.902 99.75 352.467 97.8555 351.451 95.6875C350.455 93.5195 349.957 91.1953 349.957 88.7148ZM359.068 88.7148C359.068 90.1016 359.342 91.4199 359.889 92.6699C360.455 93.9004 361.266 94.9941 362.32 95.9512C363.395 96.8887 364.693 97.6406 366.217 98.207C367.76 98.7539 369.508 99.0273 371.461 99.0273C373.414 99.0273 375.152 98.7539 376.676 98.207C378.219 97.6406 379.518 96.8887 380.572 95.9512C381.646 94.9941 382.457 93.9004 383.004 92.6699C383.57 91.4199 383.854 90.1016 383.854 88.7148C383.854 87.3281 383.57 86.0098 383.004 84.7598C382.457 83.5098 381.646 82.416 380.572 81.4785C379.518 80.5215 378.219 79.7695 376.676 79.2227C375.152 78.6562 373.414 78.373 371.461 78.373C369.508 78.373 367.76 78.6562 366.217 79.2227C364.693 79.7695 363.395 80.5215 362.32 81.4785C361.266 82.416 360.455 83.5098 359.889 84.7598C359.342 86.0098 359.068 87.3281 359.068 88.7148ZM401.725 71.4297H410.396V74.3594C412.701 73.0508 414.898 72.1328 416.988 71.6055C419.098 71.0781 421.158 70.8145 423.17 70.8145C425.807 70.8145 428.248 71.2051 430.494 71.9863C432.74 72.748 434.684 73.8906 436.324 75.4141C437.965 76.9375 439.244 78.8418 440.162 81.127C441.1 83.3926 441.568 86.0195 441.568 89.0078V106H432.926V90.4141C432.926 88.5195 432.652 86.8301 432.105 85.3457C431.578 83.8418 430.807 82.582 429.791 81.5664C428.795 80.5312 427.574 79.75 426.129 79.2227C424.703 78.6758 423.102 78.4023 421.324 78.4023C420.387 78.4023 419.42 78.5 418.424 78.6953C417.447 78.8906 416.48 79.1738 415.523 79.5449C414.586 79.8965 413.678 80.3457 412.799 80.8926C411.92 81.4199 411.119 82.0254 410.396 82.709V106H401.725V71.4297ZM450.592 95.1016C450.592 93.4414 450.953 91.9277 451.676 90.5605C452.398 89.1934 453.482 88.0215 454.928 87.0449C456.373 86.0488 458.17 85.2871 460.318 84.7598C462.486 84.2129 465.006 83.9395 467.877 83.9395C470.006 83.9395 472.242 84.0957 474.586 84.4082C476.949 84.7207 479.381 85.1992 481.881 85.8438C481.783 84.75 481.451 83.7441 480.885 82.8262C480.318 81.8887 479.527 81.0879 478.512 80.4238C477.516 79.7402 476.305 79.2129 474.879 78.8418C473.473 78.4707 471.871 78.2852 470.074 78.2852C469.098 78.2852 468.023 78.3438 466.852 78.4609C465.68 78.5781 464.469 78.7539 463.219 78.9883C461.969 79.2227 460.729 79.5156 459.498 79.8672C458.287 80.2188 457.154 80.6387 456.1 81.127L453.463 74.0078C454.771 73.5391 456.168 73.1094 457.652 72.7188C459.156 72.3281 460.689 71.9961 462.252 71.7227C463.814 71.4297 465.377 71.2051 466.939 71.0488C468.502 70.8926 470.016 70.8145 471.48 70.8145C477.945 70.8145 482.75 72.4648 485.895 75.7656C489.039 79.0664 490.611 84.125 490.611 90.9414V106H481.939V102.748C481.041 103.275 480.055 103.773 478.98 104.242C477.926 104.711 476.773 105.121 475.523 105.473C474.273 105.824 472.926 106.098 471.48 106.293C470.055 106.508 468.541 106.615 466.939 106.615C464.244 106.615 461.871 106.322 459.82 105.736C457.789 105.15 456.09 104.34 454.723 103.305C453.355 102.27 452.32 101.059 451.617 99.6719C450.934 98.2656 450.592 96.7422 450.592 95.1016ZM459.732 94.8086C459.732 95.375 459.879 95.9219 460.172 96.4492C460.465 96.957 460.934 97.416 461.578 97.8262C462.223 98.2168 463.043 98.5391 464.039 98.793C465.055 99.0273 466.275 99.1445 467.701 99.1445C469.225 99.1445 470.699 99.0078 472.125 98.7344C473.551 98.4609 474.879 98.0996 476.109 97.6504C477.34 97.2012 478.453 96.6836 479.449 96.0977C480.445 95.5117 481.275 94.9062 481.939 94.2812V92.7578C480.611 92.3867 479.293 92.0742 477.984 91.8203C476.695 91.5664 475.455 91.3711 474.264 91.2344C473.092 91.0781 471.979 90.9707 470.924 90.9121C469.889 90.8535 468.98 90.8242 468.199 90.8242C466.578 90.8242 465.23 90.9316 464.156 91.1465C463.082 91.3613 462.213 91.6543 461.549 92.0254C460.885 92.377 460.416 92.7969 460.143 93.2852C459.869 93.7734 459.732 94.2812 459.732 94.8086Z" fill="#DAC387"/>
<path d="M114.967 92.377L116.934 88.8939L113.679 87.0558L111.625 90.1792L114.967 92.377ZM120.006 94.9258L118.37 98.5758L118.395 98.5871L118.42 98.598L120.006 94.9258ZM125.338 96.8301L124.234 100.675L124.253 100.68L124.272 100.685L125.338 96.8301ZM131.109 98.002L130.571 101.966L130.576 101.966L131.109 98.002ZM144.615 97.8848L145.331 101.82L145.35 101.817L145.369 101.813L144.615 97.8848ZM149.332 96.3906L151.167 99.9451L151.177 99.9396L151.188 99.934L149.332 96.3906ZM151.998 94.1055L148.636 91.9387L148.619 91.9653L148.602 91.9923L151.998 94.1055ZM150.768 87.3086L148.464 90.579L148.48 90.5899L148.496 90.6007L150.768 87.3086ZM140.338 86.1074L140.78 90.083L140.807 90.0799L140.834 90.0765L140.338 86.1074ZM136.061 86.6348L135.525 82.6708L135.518 82.6718L136.061 86.6348ZM131.812 87.1914L132.26 91.1663L132.285 91.1635L132.309 91.1605L131.812 87.1914ZM121.969 86.6348L120.886 90.4854L120.896 90.4883L121.969 86.6348ZM116.959 84.2617L114.601 87.4929L114.611 87.5004L114.622 87.5079L116.959 84.2617ZM112.711 71.0488L108.865 69.9499L108.857 69.9783L108.849 70.0067L112.711 71.0488ZM114.352 67.5332L111.032 65.3012L111.028 65.3078L111.023 65.3144L114.352 67.5332ZM117.281 64.3984L119.786 67.5169L119.802 67.5045L119.817 67.492L117.281 64.3984ZM121.588 61.8789L120.058 58.1828L120.051 58.186L120.043 58.1891L121.588 61.8789ZM127.447 60.2383L128.144 64.1771L128.158 64.1746L128.172 64.1721L127.447 60.2383ZM141.217 59.9746L140.767 63.9492L140.785 63.9513L140.804 63.9532L141.217 59.9746ZM147.252 60.9121L146.43 64.8267L146.438 64.8284L147.252 60.9121ZM152.936 62.4062L151.708 66.2131L151.726 66.2191L151.745 66.2249L152.936 62.4062ZM158.004 64.3105L161.519 66.2192L163.576 62.4315L159.645 60.6629L158.004 64.3105ZM153.932 71.8105L152.323 75.4726L155.691 76.9528L157.447 73.7192L153.932 71.8105ZM149.771 70.2578L148.522 74.0575L148.544 74.065L148.567 74.0721L149.771 70.2578ZM140.074 68.1777L139.578 72.1468L139.603 72.1499L139.628 72.1527L140.074 68.1777ZM128.473 68.4121L127.6 64.5084L127.59 64.5107L128.473 68.4121ZM124.547 69.8477L126.554 73.3078L126.579 73.2929L126.605 73.2776L124.547 69.8477ZM122.496 71.7812L118.977 69.8792L118.968 69.8967L118.959 69.9142L122.496 71.7812ZM123.785 77.2598L121.46 80.5147L121.477 80.527L121.495 80.5391L123.785 77.2598ZM132.896 78.3438L133.312 82.3221L133.338 82.3194L133.364 82.3164L132.896 78.3438ZM137.057 77.8457L136.58 73.8742L136.574 73.875L137.057 77.8457ZM141.51 77.377L141.872 81.3605L141.895 81.3584L141.918 81.3561L141.51 77.377ZM153.082 78.0508L151.959 81.89L151.969 81.8928L153.082 78.0508ZM158.326 80.6582L155.817 83.7732L155.83 83.7839L155.843 83.7944L158.326 80.6582ZM161.52 84.7305L157.874 86.3756L157.877 86.384L157.881 86.3924L161.52 84.7305ZM160.758 97.123L157.319 95.0794L157.313 95.0892L160.758 97.123ZM155.543 102.338L157.666 105.728L157.673 105.723L155.543 102.338ZM147.398 105.561L148.284 109.461L148.295 109.459L148.307 109.456L147.398 105.561ZM129.205 106.146L129.74 102.182L129.724 102.18L129.709 102.178L129.205 106.146ZM122.115 104.799L121.074 108.661L121.094 108.666L121.114 108.671L122.115 104.799ZM115.67 102.66L114.142 106.357L114.163 106.365L114.184 106.374L115.67 102.66ZM110.016 99.9062L106.673 97.7085L104.337 101.262L108.027 103.377L110.016 99.9062ZM113 95.86C114.765 96.8568 116.555 97.7624 118.37 98.5758L121.642 91.2757C120.058 90.5658 118.489 89.7721 116.934 88.8939L113 95.86ZM118.42 98.598C120.299 99.4092 122.237 100.101 124.234 100.675L126.442 92.9855C124.767 92.5043 123.151 91.9267 121.592 91.2535L118.42 98.598ZM124.272 100.685C126.292 101.244 128.392 101.669 130.571 101.966L131.648 94.0384C129.803 93.7876 128.056 93.4317 126.404 92.9748L124.272 100.685ZM130.576 101.966C132.803 102.266 135.14 102.412 137.584 102.412V94.4121C135.457 94.4121 133.479 94.2848 131.643 94.0377L130.576 101.966ZM137.584 102.412C140.49 102.412 143.088 102.228 145.331 101.82L143.9 93.9493C142.275 94.2447 140.185 94.4121 137.584 94.4121V102.412ZM145.369 101.813C147.527 101.399 149.501 100.805 151.167 99.9451L147.497 92.8361C146.741 93.2264 145.57 93.6285 143.861 93.9565L145.369 101.813ZM151.188 99.934C152.842 99.0678 154.363 97.8759 155.394 96.2187L148.602 91.9923C148.539 92.0929 148.283 92.4244 147.476 92.8473L151.188 99.934ZM155.36 96.2723C156.339 94.7543 156.848 93.0463 156.848 91.2344H148.848C148.848 91.4928 148.79 91.6988 148.636 91.9387L155.36 96.2723ZM156.848 91.2344C156.848 88.2363 155.489 85.7069 153.04 84.0165L148.496 90.6007C148.734 90.765 148.786 90.8678 148.793 90.8806C148.799 90.8911 148.848 90.977 148.848 91.2344H156.848ZM153.071 84.0382C150.683 82.3564 147.547 81.8438 144.352 81.8438V89.8438C146.937 89.8438 148.079 90.3076 148.464 90.579L153.071 84.0382ZM144.352 81.8438C142.898 81.8438 141.394 81.9443 139.842 82.1383L140.834 90.0765C142.094 89.919 143.266 89.8438 144.352 89.8438V81.8438ZM139.896 82.1319C138.458 82.2917 137.001 82.4714 135.525 82.6708L136.596 90.5987C138.011 90.4075 139.406 90.2356 140.78 90.083L139.896 82.1319ZM135.518 82.6718C134.107 82.865 132.707 83.0485 131.316 83.2223L132.309 91.1605C133.731 90.9828 135.162 90.7952 136.603 90.5978L135.518 82.6718ZM131.365 83.2166C130.107 83.3582 128.949 83.4258 127.887 83.4258V91.4258C129.285 91.4258 130.744 91.3371 132.26 91.1663L131.365 83.2166ZM127.887 83.4258C126.183 83.4258 124.572 83.2073 123.041 82.7813L120.896 90.4883C123.155 91.1169 125.489 91.4258 127.887 91.4258V83.4258ZM123.052 82.7842C121.591 82.3734 120.353 81.7761 119.296 81.0156L114.622 87.5079C116.495 88.8567 118.596 89.8414 120.886 90.4854L123.052 82.7842ZM119.317 81.0306C118.353 80.3276 117.595 79.4618 117.017 78.3973L109.987 82.216C111.128 84.3155 112.674 86.0865 114.601 87.4929L119.317 81.0306ZM117.017 78.3973C116.526 77.4946 116.213 76.3268 116.213 74.7695H108.213C108.213 77.431 108.759 79.9546 109.987 82.216L117.017 78.3973ZM116.213 74.7695C116.213 73.8783 116.331 72.9883 116.573 72.0909L108.849 70.0067C108.427 71.5703 108.213 73.1607 108.213 74.7695H116.213ZM116.557 72.1477C116.79 71.3329 117.157 70.5368 117.68 69.752L111.023 65.3144C110.062 66.7562 109.335 68.3038 108.865 69.9499L116.557 72.1477ZM117.671 69.7652C118.182 69.0046 118.872 68.251 119.786 67.5169L114.776 61.28C113.307 62.4599 112.044 63.7962 111.032 65.3012L117.671 69.7652ZM119.817 67.492C120.66 66.8011 121.747 66.1486 123.132 65.5687L120.043 58.1891C118.069 59.0155 116.285 60.0427 114.746 61.3049L119.817 67.492ZM123.117 65.575C124.498 65.0036 126.163 64.5277 128.144 64.1771L126.75 56.2995C124.317 56.7301 122.076 57.3479 120.058 58.1828L123.117 65.575ZM128.172 64.1721C130.109 63.8153 132.389 63.623 135.035 63.623V55.623C132.018 55.623 129.239 55.841 126.723 56.3045L128.172 64.1721ZM135.035 63.623C136.933 63.623 138.844 63.7315 140.767 63.9492L141.667 56C139.449 55.749 137.239 55.623 135.035 55.623V63.623ZM140.804 63.9532C142.743 64.1544 144.618 64.4461 146.43 64.8267L148.074 56.9975C145.98 56.5578 143.832 56.2245 141.63 55.996L140.804 63.9532ZM146.438 64.8284C148.278 65.211 150.034 65.6733 151.708 66.2131L154.164 58.5994C152.204 57.9673 150.171 57.4335 148.066 56.9959L146.438 64.8284ZM151.745 66.2249C153.424 66.7486 154.962 67.3279 156.362 67.9582L159.645 60.6629C157.921 59.887 156.08 59.1967 154.126 58.5876L151.745 66.2249ZM154.489 62.4019L150.416 69.9019L157.447 73.7192L161.519 66.2192L154.489 62.4019ZM155.541 68.1485C154.107 67.5184 152.584 66.9512 150.976 66.4435L148.567 74.0721C149.928 74.5019 151.178 74.9699 152.323 75.4726L155.541 68.1485ZM151.021 66.4581C149.397 65.9238 147.71 65.4682 145.961 65.0889L144.266 72.9072C145.759 73.2311 147.177 73.6152 148.522 74.0575L151.021 66.4581ZM145.961 65.0889C144.2 64.7071 142.387 64.4124 140.521 64.2027L139.628 72.1527C141.238 72.3337 142.784 72.5859 144.266 72.9072L145.961 65.0889ZM140.57 64.2086C138.681 63.9725 136.757 63.8555 134.801 63.8555V71.8555C136.438 71.8555 138.03 71.9533 139.578 72.1468L140.57 64.2086ZM134.801 63.8555C132.08 63.8555 129.651 64.0499 127.6 64.5084L129.345 72.3158C130.614 72.0321 132.404 71.8555 134.801 71.8555V63.8555ZM127.59 64.5107C125.713 64.9352 123.959 65.5357 122.489 66.4177L126.605 73.2776C127.088 72.9878 127.951 72.6312 129.355 72.3136L127.59 64.5107ZM122.54 66.3875C121.155 67.1908 119.826 68.3083 118.977 69.8792L126.015 73.6833C125.947 73.8089 125.986 73.6373 126.554 73.3078L122.54 66.3875ZM118.959 69.9142C118.324 71.1167 117.939 72.4559 117.939 73.8906H125.939C125.939 73.8952 125.938 73.8865 125.946 73.8566C125.955 73.8246 125.977 73.7559 126.034 73.6483L118.959 69.9142ZM117.939 73.8906C117.939 76.701 119.308 78.9775 121.46 80.5147L126.11 74.0048C126.002 73.9274 125.944 73.8711 125.919 73.8435C125.894 73.8173 125.897 73.8146 125.909 73.8365C125.922 73.8595 125.932 73.887 125.938 73.9109C125.944 73.9334 125.939 73.9303 125.939 73.8906H117.939ZM121.495 80.5391C123.715 82.0898 126.572 82.5488 129.41 82.5488V74.5488C127.209 74.5488 126.316 74.1485 126.076 73.9804L121.495 80.5391ZM129.41 82.5488C130.598 82.5488 131.903 82.4693 133.312 82.3221L132.481 74.3654C131.272 74.4917 130.253 74.5488 129.41 74.5488V82.5488ZM133.364 82.3164C134.698 82.1594 136.09 81.9928 137.54 81.8164L136.574 73.875C135.133 74.0502 133.752 74.2156 132.429 74.3711L133.364 82.3164ZM137.533 81.8172C138.959 81.6461 140.405 81.4939 141.872 81.3605L141.148 73.3934C139.606 73.5335 138.084 73.6937 136.58 73.8742L137.533 81.8172ZM141.918 81.3561C143.316 81.2127 144.654 81.1426 145.934 81.1426V73.1426C144.362 73.1426 142.751 73.2287 141.102 73.3978L141.918 81.3561ZM145.934 81.1426C148.339 81.1426 150.331 81.4139 151.959 81.89L154.205 74.2116C151.692 73.4768 148.919 73.1426 145.934 73.1426V81.1426ZM151.969 81.8928C153.652 82.3803 154.899 83.0335 155.817 83.7732L160.835 77.5432C158.941 76.0173 156.692 74.9322 154.195 74.2088L151.969 81.8928ZM155.843 83.7944C156.759 84.5193 157.419 85.3694 157.874 86.3756L165.166 83.0853C164.174 80.8885 162.706 79.0236 160.809 77.522L155.843 83.7944ZM157.881 86.3924C158.335 87.387 158.604 88.5863 158.604 90.0625H166.604C166.604 87.5933 166.149 85.238 165.158 83.0685L157.881 86.3924ZM158.604 90.0625C158.604 92.0502 158.148 93.6852 157.319 95.0794L164.196 99.1667C165.829 96.4203 166.604 93.3482 166.604 90.0625H158.604ZM157.313 95.0892C156.465 96.5263 155.206 97.8236 153.412 98.9525L157.673 105.723C160.411 104.001 162.629 101.821 164.202 99.1569L157.313 95.0892ZM153.42 98.9476C151.624 100.072 149.341 101.001 146.49 101.665L148.307 109.456C151.824 108.636 154.97 107.416 157.666 105.728L153.42 98.9476ZM146.513 101.66C143.67 102.305 140.428 102.645 136.764 102.645V110.645C140.912 110.645 144.76 110.261 148.284 109.461L146.513 101.66ZM136.764 102.645C134.358 102.645 132.017 102.49 129.74 102.182L128.67 110.111C131.315 110.467 134.013 110.645 136.764 110.645V102.645ZM129.709 102.178C127.406 101.886 125.209 101.467 123.117 100.926L121.114 108.671C123.552 109.302 126.082 109.782 128.701 110.115L129.709 102.178ZM123.156 100.937C121.053 100.37 119.054 99.7055 117.155 98.9463L114.184 106.374C116.388 107.255 118.685 108.017 121.074 108.661L123.156 100.937ZM117.198 98.9637C115.31 98.183 113.581 97.339 112.004 96.4357L108.027 103.377C109.927 104.466 111.967 105.458 114.142 106.357L117.198 98.9637ZM113.358 102.104L118.309 94.5747L111.625 90.1792L106.673 97.7085L113.358 102.104ZM171.744 71.4004V67.4004H167.744V71.4004H171.744ZM180.387 71.4004H184.387V67.4004H180.387V71.4004ZM180.914 92.6699L177.047 93.6935L177.049 93.7006L177.051 93.7077L180.914 92.6699ZM182.701 96.0391L179.722 98.7081L179.737 98.7251L179.753 98.742L182.701 96.0391ZM186.1 98.2363L184.695 101.982L184.726 101.993L184.758 102.004L186.1 98.2363ZM194.42 98.6758L193.607 94.7592L193.6 94.7608L193.592 94.7624L194.42 98.6758ZM197.379 97.7969L198.851 101.516L198.884 101.503L198.917 101.489L197.379 97.7969ZM199.986 96.4199L197.823 93.0552L197.805 93.0671L197.786 93.0792L199.986 96.4199ZM202.096 94.6914L205.014 97.4272L206.096 96.2732V94.6914H202.096ZM202.096 71.4004V67.4004H198.096V71.4004H202.096ZM210.768 71.4004H214.768V67.4004H210.768V71.4004ZM210.768 106V110H214.768V106H210.768ZM202.096 106H198.096V110H202.096V106ZM202.096 103.041H206.096V95.9985L200.047 99.6055L202.096 103.041ZM181.412 105.443L180.127 109.231L180.137 109.235L181.412 105.443ZM175.875 102.133L173.009 104.923L173.027 104.942L173.047 104.961L175.875 102.133ZM172.74 96.7715L168.922 97.9626L168.925 97.9726L172.74 96.7715ZM171.744 75.4004H180.387V67.4004H171.744V75.4004ZM176.387 71.4004V88.2754H184.387V71.4004H176.387ZM176.387 88.2754C176.387 90.1669 176.594 91.9816 177.047 93.6935L184.781 91.6464C184.531 90.702 184.387 89.587 184.387 88.2754H176.387ZM177.051 93.7077C177.553 95.5744 178.432 97.2684 179.722 98.7081L185.681 93.3701C185.291 92.9347 184.979 92.3826 184.777 91.6321L177.051 93.7077ZM179.753 98.742C181.108 100.221 182.806 101.273 184.695 101.982L187.504 94.491C186.581 94.1449 186.013 93.7325 185.65 93.3362L179.753 98.742ZM184.758 102.004C186.747 102.713 189.002 102.998 191.402 102.998V94.998C189.584 94.998 188.304 94.7752 187.442 94.4682L184.758 102.004ZM191.402 102.998C192.688 102.998 193.971 102.859 195.248 102.589L193.592 94.7624C192.837 94.9221 192.109 94.998 191.402 94.998V102.998ZM195.233 102.592C196.482 102.333 197.69 101.976 198.851 101.516L195.907 94.0776C195.193 94.3602 194.428 94.5889 193.607 94.7592L195.233 102.592ZM198.917 101.489C200.072 101.008 201.165 100.433 202.186 99.7606L197.786 93.0792C197.207 93.4611 196.561 93.8045 195.84 94.1046L198.917 101.489ZM202.149 99.7846C203.209 99.1035 204.175 98.3224 205.014 97.4272L199.178 91.9556C198.845 92.3104 198.404 92.6817 197.823 93.0552L202.149 99.7846ZM206.096 94.6914V71.4004H198.096V94.6914H206.096ZM202.096 75.4004H210.768V67.4004H202.096V75.4004ZM206.768 71.4004V106H214.768V71.4004H206.768ZM210.768 102H202.096V110H210.768V102ZM206.096 106V103.041H198.096V106H206.096ZM200.047 99.6055C198.21 100.701 196.427 101.448 194.693 101.889L196.666 109.642C199.229 108.99 201.723 107.92 204.144 106.477L200.047 99.6055ZM194.693 101.889C192.821 102.366 191.113 102.586 189.557 102.586V110.586C191.867 110.586 194.242 110.259 196.666 109.642L194.693 101.889ZM189.557 102.586C186.694 102.586 184.433 102.239 182.687 101.652L180.137 109.235C182.922 110.171 186.091 110.586 189.557 110.586V102.586ZM182.697 101.655C180.939 101.059 179.65 100.251 178.703 99.3044L173.047 104.961C174.991 106.905 177.393 108.304 180.127 109.231L182.697 101.655ZM178.741 99.3429C177.787 98.3621 177.048 97.133 176.556 95.5703L168.925 97.9726C169.761 100.629 171.112 102.974 173.009 104.923L178.741 99.3429ZM176.559 95.5804C176.038 93.9102 175.744 91.9013 175.744 89.5059H167.744C167.744 92.5401 168.115 95.375 168.922 97.9626L176.559 95.5804ZM175.744 89.5059V71.4004H167.744V89.5059H175.744ZM221.783 71.4297V67.4297H217.783V71.4297H221.783ZM230.455 71.4297H234.455V67.4297H230.455V71.4297ZM230.455 76.4102H226.455V84.3775L232.845 79.618L230.455 76.4102ZM242.877 70.3457L246.686 69.123L245.531 65.5255L241.873 66.4737L242.877 70.3457ZM245.426 78.2852L245.821 82.2655L250.747 81.7758L249.234 77.0625L245.426 78.2852ZM236.607 80.541L238.271 84.1786L238.284 84.1729L236.607 80.541ZM230.455 85.4336L227.255 83.0336L226.455 84.1003V85.4336H230.455ZM230.455 106V110H234.455V106H230.455ZM221.783 106H217.783V110H221.783V106ZM221.783 75.4297H230.455V67.4297H221.783V75.4297ZM226.455 71.4297V76.4102H234.455V71.4297H226.455ZM232.845 79.618C234.56 78.3405 236.367 77.2408 238.269 76.316L234.77 69.1215C232.414 70.267 230.179 71.6282 228.066 73.2023L232.845 79.618ZM238.269 76.316C240.179 75.3871 242.049 74.6925 243.881 74.2177L241.873 66.4737C239.486 67.0926 237.118 67.9801 234.77 69.1215L238.269 76.316ZM239.068 71.5684L241.617 79.5078L249.234 77.0625L246.686 69.123L239.068 71.5684ZM245.03 74.3048C241.333 74.6723 237.946 75.5175 234.931 76.9092L238.284 84.1729C240.347 83.2208 242.839 82.5621 245.821 82.2655L245.03 74.3048ZM234.944 76.9034C231.849 78.319 229.258 80.3625 227.255 83.0336L233.655 87.8336C234.816 86.2859 236.327 85.0677 238.271 84.1786L234.944 76.9034ZM226.455 85.4336V106H234.455V85.4336H226.455ZM230.455 102H221.783V110H230.455V102ZM225.783 106V71.4297H217.783V106H225.783ZM257.32 111.859L258.666 108.092L255.159 106.84L253.659 110.248L257.32 111.859ZM260.66 112.826L261.599 108.938L261.567 108.93L261.535 108.923L260.66 112.826ZM263.941 113.471L264.587 109.523L264.558 109.518L264.528 109.514L263.941 113.471ZM267.018 113.822L267.337 109.835L267.297 109.832L267.257 109.829L267.018 113.822ZM275.631 113.09L274.418 109.278L274.392 109.286L274.366 109.295L275.631 113.09ZM279.908 110.863L277.384 107.76L277.371 107.771L277.358 107.782L279.908 110.863ZM282.486 107.582L278.853 105.909L278.848 105.92L278.843 105.931L282.486 107.582ZM283.336 102.162H287.336V94.5786L281.077 98.8609L283.336 102.162ZM273.639 105.707L273.009 101.757L273 101.758L273.639 105.707ZM261.656 104.77L260.309 108.536L260.323 108.541L260.336 108.545L261.656 104.77ZM255.416 101.195L252.777 104.201L252.787 104.21L252.796 104.218L255.416 101.195ZM251.285 95.6582L247.644 97.3134L247.65 97.3271L247.656 97.3407L251.285 95.6582ZM251.373 81.2441L254.983 82.9677L254.989 82.9551L251.373 81.2441ZM255.65 75.6484L253.077 72.5863L253.069 72.593L253.061 72.5999L255.65 75.6484ZM277.535 71.6934L276.581 75.5779L276.589 75.5798L276.597 75.5817L277.535 71.6934ZM280.699 72.6895L279.214 76.4034L279.258 76.4211L279.303 76.4378L280.699 72.6895ZM283.336 73.9199L281.304 77.3654L287.336 80.9227V73.9199H283.336ZM283.336 71.4297V67.4297H279.336V71.4297H283.336ZM292.008 71.4297H296.008V67.4297H292.008V71.4297ZM286.354 116.488L283.704 113.492L283.687 113.506L283.671 113.521L286.354 116.488ZM279.498 120.238L278.324 116.415L278.311 116.418L278.299 116.422L279.498 120.238ZM266.139 121.352L266.48 117.366L266.452 117.364L266.424 117.362L266.139 121.352ZM262.008 120.883L262.62 116.93L262.597 116.926L262.574 116.923L262.008 120.883ZM257.936 120.15L258.785 116.242L258.764 116.237L258.742 116.233L257.936 120.15ZM254.098 119.184L250.436 117.573L248.617 121.709L252.943 123.013L254.098 119.184ZM259.752 92.3477L256.097 93.9722L256.112 94.0075L256.129 94.0424L259.752 92.3477ZM262.154 95.541L259.5 98.5338L259.516 98.5479L259.532 98.5619L262.154 95.541ZM265.904 97.6797L264.549 101.443L264.572 101.451L264.594 101.459L265.904 97.6797ZM274.4 98.1191L275.122 102.054L275.147 102.049L275.172 102.044L274.4 98.1191ZM277.799 97.1523L276.394 93.407L276.383 93.4112L276.372 93.4155L277.799 97.1523ZM280.846 95.6582L278.757 92.2468L278.741 92.2564L278.726 92.2662L280.846 95.6582ZM283.336 93.6953L286.203 96.4847L287.336 95.3202V93.6953H283.336ZM283.336 82.2988H287.336V80.3763L285.835 79.1754L283.336 82.2988ZM277.564 79.3105L278.741 75.4874L277.564 79.3105ZM274.488 78.6367L273.891 82.5919L273.928 82.5974L273.965 82.6023L274.488 78.6367ZM266.139 79.1934L264.86 75.4034L264.852 75.4058L264.845 75.4083L266.139 79.1934ZM262.213 81.3613L264.807 84.4063L264.811 84.4023L262.213 81.3613ZM255.975 115.626C257.223 116.072 258.493 116.44 259.785 116.729L261.535 108.923C260.562 108.705 259.606 108.428 258.666 108.092L255.975 115.626ZM259.722 116.715C260.96 117.013 262.172 117.252 263.355 117.428L264.528 109.514C263.602 109.377 262.626 109.186 261.599 108.938L259.722 116.715ZM263.295 117.418C264.49 117.614 265.651 117.747 266.778 117.815L267.257 109.829C266.431 109.78 265.542 109.679 264.587 109.523L263.295 117.418ZM266.699 117.81C267.753 117.894 268.732 117.939 269.625 117.939V109.939C268.995 109.939 268.235 109.907 267.337 109.835L266.699 117.81ZM269.625 117.939C272.243 117.939 274.691 117.62 276.896 116.885L274.366 109.295C273.172 109.693 271.617 109.939 269.625 109.939V117.939ZM276.844 116.902C278.943 116.233 280.852 115.274 282.458 113.945L277.358 107.782C276.698 108.327 275.756 108.853 274.418 109.278L276.844 116.902ZM282.433 113.966C284.025 112.671 285.287 111.093 286.13 109.233L278.843 105.931C278.553 106.571 278.096 107.181 277.384 107.76L282.433 113.966ZM286.12 109.255C286.934 107.487 287.336 105.606 287.336 103.656H279.336C279.336 104.48 279.172 105.216 278.853 105.909L286.12 109.255ZM287.336 103.656V102.162H279.336V103.656H287.336ZM281.077 98.8609C280.545 99.2248 279.869 99.6106 279.025 100.008L282.432 107.246C283.58 106.706 284.642 106.115 285.595 105.463L281.077 98.8609ZM279.025 100.008C278.235 100.379 277.335 100.72 276.315 101.021L278.579 108.694C279.942 108.292 281.229 107.812 282.432 107.246L279.025 100.008ZM276.315 101.021C275.304 101.319 274.203 101.567 273.009 101.757L274.268 109.657C275.769 109.418 277.208 109.099 278.579 108.694L276.315 101.021ZM273 101.758C271.895 101.937 270.732 102.029 269.508 102.029V110.029C271.135 110.029 272.726 109.907 274.277 109.656L273 101.758ZM269.508 102.029C267.075 102.029 264.909 101.669 262.976 100.994L260.336 108.545C263.208 109.549 266.277 110.029 269.508 110.029V102.029ZM263.004 101.003C261.022 100.295 259.384 99.3414 258.036 98.1726L252.796 104.218C254.963 106.096 257.485 107.526 260.309 108.536L263.004 101.003ZM258.055 98.1891C256.721 97.0183 255.679 95.6253 254.914 93.9757L247.656 97.3407C248.884 99.988 250.595 102.286 252.777 104.201L258.055 98.1891ZM254.927 94.003C254.211 92.4285 253.82 90.6186 253.82 88.5098H245.82C245.82 91.6353 246.406 94.591 247.644 97.3134L254.927 94.003ZM253.82 88.5098C253.82 86.3619 254.232 84.5389 254.983 82.9677L247.763 79.5206C246.443 82.2854 245.82 85.306 245.82 88.5098H253.82ZM254.989 82.9551C255.785 81.2731 256.864 79.8662 258.24 78.697L253.061 72.5999C250.804 74.5166 249.032 76.8402 247.757 79.5332L254.989 82.9551ZM258.224 78.7106C259.64 77.5208 261.356 76.5621 263.428 75.866L260.881 68.2825C257.953 69.266 255.333 70.6901 253.077 72.5863L258.224 78.7106ZM263.428 75.866C265.475 75.1784 267.755 74.8145 270.299 74.8145V66.8145C266.984 66.8145 263.834 67.2903 260.881 68.2825L263.428 75.866ZM270.299 74.8145C271.382 74.8145 272.454 74.8821 273.516 75.017L274.523 67.0807C273.125 66.9031 271.716 66.8145 270.299 66.8145V74.8145ZM273.516 75.017C274.607 75.1555 275.628 75.3437 276.581 75.5779L278.489 67.8088C277.216 67.4961 275.893 67.2546 274.523 67.0807L273.516 75.017ZM276.597 75.5817C277.563 75.8149 278.433 76.091 279.214 76.4034L282.185 68.9755C281.012 68.5066 279.773 68.1187 278.474 67.805L276.597 75.5817ZM279.303 76.4378C280.121 76.7426 280.78 77.0566 281.304 77.3654L285.368 70.4745C284.368 69.8848 283.27 69.3785 282.096 68.9411L279.303 76.4378ZM287.336 73.9199V71.4297H279.336V73.9199H287.336ZM283.336 75.4297H292.008V67.4297H283.336V75.4297ZM288.008 71.4297V102.045H296.008V71.4297H288.008ZM288.008 102.045C288.008 104.788 287.59 107.057 286.852 108.924L294.292 111.865C295.468 108.889 296.008 105.591 296.008 102.045H288.008ZM286.852 108.924C286.114 110.791 285.063 112.29 283.704 113.492L289.003 119.485C291.355 117.405 293.116 114.841 294.292 111.865L286.852 108.924ZM283.671 113.521C282.331 114.732 280.585 115.72 278.324 116.415L280.672 124.062C283.88 123.077 286.704 121.564 289.036 119.455L283.671 113.521ZM278.299 116.422C276.031 117.135 273.313 117.527 270.094 117.527V125.527C273.945 125.527 277.497 125.06 280.697 124.054L278.299 116.422ZM270.094 117.527C268.947 117.527 267.743 117.474 266.48 117.366L265.797 125.337C267.269 125.463 268.701 125.527 270.094 125.527V117.527ZM266.424 117.362C265.169 117.272 263.901 117.128 262.62 116.93L261.395 124.836C262.888 125.067 264.374 125.236 265.854 125.341L266.424 117.362ZM262.574 116.923C261.301 116.741 260.039 116.514 258.785 116.242L257.086 124.059C258.528 124.373 259.98 124.634 261.442 124.843L262.574 116.923ZM258.742 116.233C257.525 115.982 256.362 115.689 255.253 115.354L252.943 123.013C254.294 123.421 255.69 123.772 257.129 124.068L258.742 116.233ZM257.759 120.795L260.982 113.47L253.659 110.248L250.436 117.573L257.759 120.795ZM254.932 88.4219C254.932 90.3511 255.316 92.2149 256.097 93.9722L263.407 90.7231C263.094 90.0195 262.932 89.2661 262.932 88.4219H254.932ZM256.129 94.0424C256.934 95.7649 258.072 97.2667 259.5 98.5338L264.808 92.5483C264.167 91.9794 263.702 91.3522 263.375 90.6529L256.129 94.0424ZM259.532 98.5619C260.988 99.8249 262.683 100.771 264.549 101.443L267.259 93.9161C266.196 93.5335 265.391 93.054 264.776 92.5201L259.532 98.5619ZM264.594 101.459C266.55 102.137 268.654 102.441 270.855 102.441V94.4414C269.385 94.4414 268.188 94.238 267.214 93.9003L264.594 101.459ZM270.855 102.441C272.289 102.441 273.712 102.312 275.122 102.054L273.679 94.1847C272.745 94.3559 271.805 94.4414 270.855 94.4414V102.441ZM275.172 102.044C276.575 101.768 277.927 101.385 279.226 100.889L276.372 93.4155C275.522 93.7401 274.609 94.0015 273.628 94.1944L275.172 102.044ZM279.203 100.898C280.533 100.399 281.79 99.7852 282.966 99.0502L278.726 92.2662C278.027 92.7031 277.252 93.0852 276.394 93.407L279.203 100.898ZM282.934 99.0696C284.144 98.3289 285.243 97.4715 286.203 96.4847L280.469 90.9059C280.023 91.3644 279.461 91.8156 278.757 92.2468L282.934 99.0696ZM287.336 93.6953V82.2988H279.336V93.6953H287.336ZM285.835 79.1754C284.743 78.3017 283.578 77.5521 282.342 76.934L278.764 84.0894C279.481 84.4479 280.171 84.8897 280.837 85.4223L285.835 79.1754ZM282.342 76.934C281.173 76.3499 279.973 75.8665 278.741 75.4874L276.388 83.1337C277.187 83.3796 277.979 83.697 278.764 84.0894L282.342 76.934ZM278.741 75.4874C277.516 75.1105 276.272 74.8376 275.012 74.6712L273.965 82.6023C274.775 82.7093 275.582 82.8856 276.388 83.1337L278.741 75.4874ZM275.085 74.6815C273.867 74.4976 272.661 74.4023 271.471 74.4023V82.4023C272.234 82.4023 273.04 82.4634 273.891 82.5919L275.085 74.6815ZM271.471 74.4023C269.131 74.4023 266.91 74.7115 264.86 75.4034L267.418 82.9833C268.493 82.6206 269.826 82.4023 271.471 82.4023V74.4023ZM264.845 75.4083C262.897 76.0742 261.127 77.0277 259.614 78.3204L264.811 84.4023C265.447 83.859 266.295 83.3672 267.432 82.9784L264.845 75.4083ZM259.619 78.3164C258.145 79.5722 256.976 81.0822 256.158 82.8307L263.404 86.2201C263.719 85.5468 264.172 84.9474 264.807 84.4063L259.619 78.3164ZM256.158 82.8307C255.334 84.5921 254.932 86.4719 254.932 88.4219H262.932C262.932 87.5984 263.096 86.8806 263.404 86.2201L256.158 82.8307ZM301.676 81.8887L305.324 83.5287L305.33 83.5163L301.676 81.8887ZM312.398 72.2793L311 68.5317L310.991 68.5351L312.398 72.2793ZM330.211 72.3086L328.797 76.0505L328.814 76.0568L328.831 76.0629L330.211 72.3086ZM336.949 76.3516L334.216 79.2716L334.223 79.2789L334.231 79.286L336.949 76.3516ZM341.197 82.416L337.51 83.9655L337.515 83.9786L337.521 83.9917L341.197 82.416ZM342.662 90.9707L338.667 90.771L338.662 90.8708V90.9707H342.662ZM342.604 91.9961V95.9961H346.135L346.573 92.4922L342.604 91.9961ZM309.908 91.9961V87.9961H304.225L306.143 93.3459L309.908 91.9961ZM311.695 94.8379L308.802 97.5998L308.818 97.6168L308.835 97.6336L311.695 94.8379ZM319.166 98.5293L318.328 102.441L318.35 102.445L318.373 102.45L319.166 98.5293ZM330.562 98.4121L331.377 102.328L331.395 102.324L331.414 102.32L330.562 98.4121ZM336.217 96.8008L339.875 95.1822L338.369 91.7793L334.866 93.0357L336.217 96.8008ZM339.146 103.422L340.835 107.048L344.392 105.392L342.804 101.803L339.146 103.422ZM335.689 104.828L336.974 108.616L336.992 108.61L337.011 108.604L335.689 104.828ZM332.057 105.824L332.853 109.744L332.876 109.739L332.899 109.735L332.057 105.824ZM328.102 106.41L327.709 102.429L327.704 102.43L328.102 106.41ZM333.492 85.2285V89.2285H339.006L337.295 83.9869L333.492 85.2285ZM332.027 82.5625L328.854 84.9978L328.886 85.039L328.918 85.0793L332.027 82.5625ZM329.596 80.3945L327.439 83.7636L327.464 83.7791L327.488 83.7941L329.596 80.3945ZM311.373 82.6211L308.3 80.0604L308.282 80.0822L308.264 80.1043L311.373 82.6211ZM309.908 85.2285L306.122 83.9395L304.321 89.2285H309.908V85.2285ZM304.24 88.5977C304.24 86.8169 304.6 85.1398 305.324 83.5287L298.027 80.2486C296.838 82.8954 296.24 85.6909 296.24 88.5977H304.24ZM305.33 83.5163C306.055 81.8886 307.099 80.4413 308.504 79.159L303.11 73.2511C300.92 75.2501 299.211 77.5918 298.022 80.261L305.33 83.5163ZM308.504 79.159C309.876 77.9062 311.618 76.846 313.806 76.0235L310.991 68.5351C307.983 69.6658 305.331 71.2227 303.11 73.2511L308.504 79.159ZM313.797 76.0269C315.891 75.2455 318.374 74.8145 321.305 74.8145V66.8145C317.595 66.8145 314.14 67.36 311 68.5317L313.797 76.0269ZM321.305 74.8145C324.204 74.8145 326.682 75.2515 328.797 76.0505L331.625 68.5667C328.466 67.3735 325.007 66.8145 321.305 66.8145V74.8145ZM328.831 76.0629C331.047 76.8779 332.816 77.9619 334.216 79.2716L339.683 73.4315C337.41 71.3037 334.687 69.6924 331.591 68.5543L328.831 76.0629ZM334.231 79.286C335.67 80.6188 336.755 82.1685 337.51 83.9655L344.885 80.8666C343.687 78.0151 341.94 75.5219 339.667 73.4171L334.231 79.286ZM337.521 83.9917C338.293 85.793 338.691 87.7443 338.691 89.8867H346.691C346.691 86.7166 346.094 83.6874 344.874 80.8403L337.521 83.9917ZM338.691 89.8867C338.691 90.1417 338.684 90.4355 338.667 90.771L346.657 91.1705C346.679 90.7246 346.691 90.2958 346.691 89.8867H338.691ZM338.662 90.9707C338.662 91.2043 338.65 91.378 338.634 91.5L346.573 92.4922C346.635 91.9892 346.662 91.4793 346.662 90.9707H338.662ZM342.604 87.9961H309.908V95.9961H342.604V87.9961ZM306.143 93.3459C306.717 94.9488 307.627 96.3688 308.802 97.5998L314.589 92.076C314.123 91.5882 313.841 91.1137 313.674 90.6462L306.143 93.3459ZM308.835 97.6336C310.032 98.8587 311.457 99.8498 313.041 100.642L316.619 93.4867C315.704 93.0291 315.039 92.5358 314.556 92.0422L308.835 97.6336ZM313.041 100.642C314.646 101.445 316.421 102.032 318.328 102.441L320.004 94.6181C318.63 94.3235 317.514 93.9344 316.619 93.4867L313.041 100.642ZM318.373 102.45C320.318 102.844 322.405 103.027 324.615 103.027V95.0273C322.841 95.0273 321.295 94.8791 319.959 94.6088L318.373 102.45ZM324.615 103.027C326.884 103.027 329.139 102.794 331.377 102.328L329.748 94.4959C328.04 94.851 326.331 95.0273 324.615 95.0273V103.027ZM331.414 102.32C333.546 101.856 335.598 101.272 337.567 100.566L334.866 93.0357C333.242 93.6185 331.524 94.1088 329.711 94.5038L331.414 102.32ZM332.559 98.4193L335.489 105.04L342.804 101.803L339.875 95.1822L332.559 98.4193ZM337.458 99.7955C336.444 100.268 335.415 100.686 334.368 101.053L337.011 108.604C338.308 108.15 339.583 107.631 340.835 107.048L337.458 99.7955ZM334.405 101.04C333.407 101.378 332.344 101.671 331.214 101.914L332.899 109.735C334.308 109.431 335.667 109.059 336.974 108.616L334.405 101.04ZM331.26 101.904C330.155 102.129 328.973 102.305 327.709 102.429L328.494 110.391C330.004 110.242 331.458 110.028 332.853 109.744L331.26 101.904ZM327.704 102.43C326.482 102.552 325.17 102.615 323.766 102.615V110.615C325.408 110.615 326.987 110.542 328.5 110.39L327.704 102.43ZM323.766 102.615C320.189 102.615 317.208 102.183 314.76 101.399L312.322 109.019C315.734 110.11 319.569 110.615 323.766 110.615V102.615ZM314.76 101.399C312.216 100.585 310.238 99.5223 308.727 98.2807L303.648 104.461C306.082 106.462 309.007 107.958 312.322 109.019L314.76 101.399ZM308.727 98.2807C307.196 97.0223 306.102 95.5984 305.375 94.0005L298.094 97.3159C299.359 100.093 301.234 102.478 303.648 104.461L308.727 98.2807ZM305.375 94.0005C304.627 92.3586 304.24 90.5735 304.24 88.5977H296.24C296.24 91.6609 296.85 94.5828 298.094 97.3159L305.375 94.0005ZM337.295 83.9869C336.823 82.5439 336.092 81.2267 335.136 80.0457L328.918 85.0793C329.29 85.539 329.536 85.9991 329.69 86.4701L337.295 83.9869ZM335.201 80.1272C334.238 78.8728 333.055 77.8331 331.703 76.9949L327.488 83.7941C328.089 84.1669 328.528 84.5726 328.854 84.9978L335.201 80.1272ZM331.752 77.0254C330.387 76.1519 328.871 75.5128 327.25 75.0706L325.145 82.7887C326.102 83.0497 326.851 83.3872 327.439 83.7636L331.752 77.0254ZM327.25 75.0706C325.57 74.6124 323.794 74.4023 321.949 74.4023V82.4023C323.19 82.4023 324.247 82.5439 325.145 82.7887L327.25 75.0706ZM321.949 74.4023C320.01 74.4023 318.152 74.6214 316.405 75.1025L318.529 82.8154C319.477 82.5544 320.607 82.4023 321.949 82.4023V74.4023ZM316.405 75.1025C314.754 75.5572 313.213 76.1928 311.825 77.0465L316.018 83.8598C316.662 83.4634 317.484 83.103 318.529 82.8154L316.405 75.1025ZM311.825 77.0465C310.483 77.8724 309.292 78.8706 308.3 80.0604L314.446 85.1818C314.822 84.731 315.329 84.2838 316.018 83.8598L311.825 77.0465ZM308.264 80.1043C307.33 81.2584 306.599 82.5377 306.122 83.9395L313.695 86.5176C313.843 86.0834 314.088 85.6244 314.482 85.1379L308.264 80.1043ZM309.908 89.2285H333.492V81.2285H309.908V89.2285ZM351.451 81.7422L347.829 80.0453L347.823 80.0587L347.816 80.0722L351.451 81.7422ZM355.758 76.0586L353.142 73.0327L353.134 73.0395L353.126 73.0463L355.758 76.0586ZM362.525 72.2207L361.194 68.4487L361.185 68.4518L362.525 72.2207ZM380.367 72.2207L379.027 75.9896L379.036 75.9927L380.367 72.2207ZM387.135 76.0586L384.503 79.0709L384.511 79.0777L384.519 79.0845L387.135 76.0586ZM391.441 81.7422L387.807 83.4122L387.813 83.4257L387.819 83.4391L391.441 81.7422ZM391.441 95.6875L387.819 93.9906L387.813 94.004L387.807 94.0175L391.441 95.6875ZM387.135 101.371L384.519 98.3452L384.511 98.352L384.503 98.3588L387.135 101.371ZM380.367 105.209L379.036 101.437L379.027 101.44L380.367 105.209ZM362.525 105.209L361.185 108.978L361.194 108.981L362.525 105.209ZM355.758 101.371L353.126 104.383L353.134 104.39L353.142 104.397L355.758 101.371ZM351.451 95.6875L347.816 97.3575L347.823 97.371L347.829 97.3844L351.451 95.6875ZM359.889 92.6699L356.224 94.2732L356.239 94.308L356.255 94.3425L359.889 92.6699ZM362.32 95.9512L359.632 98.9134L359.661 98.9394L359.69 98.9649L362.32 95.9512ZM366.217 98.207L364.823 101.956L364.852 101.967L364.881 101.977L366.217 98.207ZM376.676 98.207L378.027 101.972L378.041 101.967L378.054 101.962L376.676 98.207ZM380.572 95.9512L383.23 98.9408L383.233 98.9378L380.572 95.9512ZM383.004 92.6699L379.361 91.019L379.355 91.0322L379.349 91.0454L383.004 92.6699ZM383.004 84.7598L379.339 86.363L379.35 86.3869L379.361 86.4107L383.004 84.7598ZM380.572 81.4785L377.884 84.4408L377.913 84.4668L377.942 84.4922L380.572 81.4785ZM376.676 79.2227L375.282 82.9719L375.311 82.9826L375.34 82.9929L376.676 79.2227ZM366.217 79.2227L367.568 82.9874L367.582 82.9826L367.595 82.9776L366.217 79.2227ZM362.32 81.4785L364.978 84.4682L364.981 84.4652L362.32 81.4785ZM359.889 84.7598L356.245 83.1088L356.234 83.1326L356.224 83.1565L359.889 84.7598ZM353.957 88.7148C353.957 86.7874 354.34 85.0354 355.086 83.4122L347.816 80.0722C346.57 82.7849 345.957 85.6813 345.957 88.7148H353.957ZM355.073 83.4391C355.847 81.7883 356.939 80.3378 358.39 79.0709L353.126 73.0463C350.865 75.0215 349.087 77.3601 347.829 80.0453L355.073 83.4391ZM358.374 79.0845C359.828 77.8272 361.637 76.7821 363.865 75.9896L361.185 68.4518C358.141 69.5344 355.438 71.0478 353.142 73.0327L358.374 79.0845ZM363.857 75.9927C366.019 75.2295 368.537 74.8145 371.461 74.8145V66.8145C367.783 66.8145 364.344 67.3369 361.194 68.4487L363.857 75.9927ZM371.461 74.8145C374.385 74.8145 376.89 75.2297 379.027 75.9896L381.707 68.4518C378.571 67.3367 375.138 66.8145 371.461 66.8145V74.8145ZM379.036 75.9927C381.282 76.7855 383.08 77.8273 384.503 79.0709L389.767 73.0463C387.479 71.0477 384.765 69.5309 381.698 68.4487L379.036 75.9927ZM384.519 79.0845C385.978 80.3465 387.059 81.7841 387.807 83.4122L395.076 80.0722C393.832 77.3643 392.041 75.0129 389.751 73.0327L384.519 79.0845ZM387.819 83.4391C388.577 85.0566 388.965 86.7991 388.965 88.7148H396.965C396.965 85.6696 396.337 82.7637 395.064 80.0453L387.819 83.4391ZM388.965 88.7148C388.965 90.6306 388.577 92.3731 387.819 93.9906L395.064 97.3844C396.337 94.666 396.965 91.7601 396.965 88.7148H388.965ZM387.807 94.0175C387.059 95.6456 385.978 97.0832 384.519 98.3452L389.751 104.397C392.041 102.417 393.832 100.065 395.076 97.3575L387.807 94.0175ZM384.503 98.3588C383.08 99.6024 381.282 100.644 379.036 101.437L381.698 108.981C384.765 107.899 387.479 106.382 389.767 104.383L384.503 98.3588ZM379.027 101.44C376.89 102.2 374.385 102.615 371.461 102.615V110.615C375.138 110.615 378.571 110.093 381.707 108.978L379.027 101.44ZM371.461 102.615C368.537 102.615 366.019 102.2 363.857 101.437L361.194 108.981C364.344 110.093 367.783 110.615 371.461 110.615V102.615ZM363.865 101.44C361.637 100.648 359.828 99.6024 358.374 98.3452L353.142 104.397C355.438 106.382 358.141 107.895 361.185 108.978L363.865 101.44ZM358.39 98.3588C356.939 97.0918 355.847 95.6414 355.073 93.9906L347.829 97.3844C349.087 100.07 350.865 102.408 353.126 104.383L358.39 98.3588ZM355.086 94.0175C354.34 92.3943 353.957 90.6423 353.957 88.7148H345.957C345.957 91.7484 346.57 94.6448 347.816 97.3575L355.086 94.0175ZM355.068 88.7148C355.068 90.6441 355.452 92.5092 356.224 94.2732L363.553 91.0666C363.231 90.3307 363.068 89.559 363.068 88.7148H355.068ZM356.255 94.3425C357.058 96.0871 358.2 97.6134 359.632 98.9134L365.008 92.9889C364.332 92.3748 363.852 91.7137 363.522 90.9973L356.255 94.3425ZM359.69 98.9649C361.176 100.261 362.909 101.245 364.823 101.956L367.611 94.4578C366.478 94.0365 365.613 93.5159 364.95 92.9375L359.69 98.9649ZM364.881 101.977C366.926 102.702 369.138 103.027 371.461 103.027V95.0273C369.878 95.0273 368.593 94.8055 367.553 94.4368L364.881 101.977ZM371.461 103.027C373.782 103.027 375.991 102.703 378.027 101.972L375.324 94.4423C374.314 94.8051 373.046 95.0273 371.461 95.0273V103.027ZM378.054 101.962C379.991 101.251 381.744 100.261 383.23 98.9408L377.915 92.9615C377.291 93.516 376.446 94.0303 375.297 94.452L378.054 101.962ZM383.233 98.9378C384.702 97.6289 385.866 96.0795 386.659 94.2945L379.349 91.0454C379.048 91.7213 378.591 92.3594 377.911 92.9645L383.233 98.9378ZM386.647 94.3208C387.451 92.5466 387.854 90.6648 387.854 88.7148H379.854C379.854 89.5383 379.689 90.2932 379.361 91.019L386.647 94.3208ZM387.854 88.7148C387.854 86.7649 387.451 84.8831 386.647 83.1088L379.361 86.4107C379.689 87.1365 379.854 87.8914 379.854 88.7148H387.854ZM386.669 83.1565C385.874 81.3414 384.701 79.7725 383.202 78.4648L377.942 84.4922C378.592 85.0596 379.04 85.6782 379.339 86.363L386.669 83.1565ZM383.26 78.5163C381.759 77.1538 379.981 76.1502 378.012 75.4525L375.34 82.9929C376.457 83.3889 377.276 83.8892 377.884 84.4408L383.26 78.5163ZM378.07 75.4734C376.02 74.7115 373.797 74.373 371.461 74.373V82.373C373.032 82.373 374.284 82.601 375.282 82.9719L378.07 75.4734ZM371.461 74.373C369.124 74.373 366.897 74.7119 364.838 75.4677L367.595 82.9776C368.622 82.6006 369.892 82.373 371.461 82.373V74.373ZM364.865 75.4579C362.92 76.1563 361.161 77.154 359.659 78.4919L364.981 84.4652C365.628 83.889 366.467 83.3828 367.568 82.9874L364.865 75.4579ZM359.663 78.4889C358.202 79.7878 357.05 81.3339 356.245 83.1088L363.532 86.4107C363.861 85.6857 364.33 85.0442 364.978 84.4682L359.663 78.4889ZM356.224 83.1565C355.452 84.9205 355.068 86.7856 355.068 88.7148H363.068C363.068 87.8707 363.231 87.099 363.553 86.363L356.224 83.1565ZM401.725 71.4297V67.4297H397.725V71.4297H401.725ZM410.396 71.4297H414.396V67.4297H410.396V71.4297ZM410.396 74.3594H406.396V81.2304L412.372 77.8378L410.396 74.3594ZM416.988 71.6055L416.018 67.7249L416.01 67.727L416.988 71.6055ZM430.494 71.9863L429.18 75.7643L429.195 75.7694L429.209 75.7744L430.494 71.9863ZM440.162 81.127L436.45 82.618L436.458 82.6372L436.466 82.6564L440.162 81.127ZM441.568 106V110H445.568V106H441.568ZM432.926 106H428.926V110H432.926V106ZM432.105 85.3457L428.331 86.6693L428.341 86.699L428.352 86.7285L432.105 85.3457ZM429.791 81.5664L426.909 84.3399L426.935 84.3676L426.963 84.3948L429.791 81.5664ZM426.129 79.2227L424.696 82.9574L424.727 82.9691L424.758 82.9803L426.129 79.2227ZM418.424 78.6953L417.654 74.7701L417.647 74.7715L417.639 74.773L418.424 78.6953ZM415.523 79.5449L416.928 83.2902L416.949 83.2824L416.97 83.2744L415.523 79.5449ZM412.799 80.8926L414.857 84.3226L414.885 84.3059L414.912 84.2888L412.799 80.8926ZM410.396 82.709L407.648 79.8031L406.396 80.9867V82.709H410.396ZM410.396 106V110H414.396V106H410.396ZM401.725 106H397.725V110H401.725V106ZM401.725 75.4297H410.396V67.4297H401.725V75.4297ZM406.396 71.4297V74.3594H414.396V71.4297H406.396ZM412.372 77.8378C414.432 76.6677 416.295 75.9059 417.967 75.4839L416.01 67.727C413.502 68.3598 410.97 69.4338 408.421 70.881L412.372 77.8378ZM417.958 75.486C419.776 75.0317 421.51 74.8145 423.17 74.8145V66.8145C420.806 66.8145 418.419 67.1246 416.018 67.7249L417.958 75.486ZM423.17 74.8145C425.408 74.8145 427.4 75.1451 429.18 75.7643L431.808 68.2083C429.096 67.265 426.206 66.8145 423.17 66.8145V74.8145ZM429.209 75.7744C430.954 76.366 432.399 77.2281 433.602 78.3452L439.046 72.4829C436.968 70.5531 434.527 69.1301 431.779 68.1982L429.209 75.7744ZM433.602 78.3452C434.769 79.4288 435.73 80.8247 436.45 82.618L443.874 79.6359C442.758 76.8589 441.16 74.4462 439.046 72.4829L433.602 78.3452ZM436.466 82.6564C437.164 84.3435 437.568 86.4326 437.568 89.0078H445.568C445.568 85.6065 445.035 82.4417 443.858 79.5975L436.466 82.6564ZM437.568 89.0078V106H445.568V89.0078H437.568ZM441.568 102H432.926V110H441.568V102ZM436.926 106V90.4141H428.926V106H436.926ZM436.926 90.4141C436.926 88.1384 436.598 85.9679 435.859 83.9629L428.352 86.7285C428.707 87.6923 428.926 88.9006 428.926 90.4141H436.926ZM435.88 84.0221C435.176 82.0147 434.104 80.2225 432.619 78.738L426.963 84.3948C427.509 84.9416 427.98 85.6689 428.331 86.6693L435.88 84.0221ZM432.673 78.7929C431.225 77.2882 429.476 76.1859 427.5 75.465L424.758 82.9803C425.673 83.3141 426.364 83.7743 426.909 84.3399L432.673 78.7929ZM427.561 75.488C425.61 74.7395 423.512 74.4023 421.324 74.4023V82.4023C422.691 82.4023 423.796 82.6121 424.696 82.9574L427.561 75.488ZM421.324 74.4023C420.108 74.4023 418.883 74.5291 417.654 74.7701L419.193 82.6206C419.957 82.4709 420.665 82.4023 421.324 82.4023V74.4023ZM417.639 74.773C416.43 75.0148 415.242 75.3637 414.077 75.8155L416.97 83.2744C417.719 82.9839 418.464 82.7664 419.208 82.6176L417.639 74.773ZM414.119 75.7996C412.926 76.2469 411.781 76.8147 410.686 77.4964L414.912 84.2888C415.574 83.8767 416.246 83.546 416.928 83.2902L414.119 75.7996ZM410.741 77.4626C409.621 78.1346 408.587 78.9143 407.648 79.8031L413.145 85.6149C413.651 85.1365 414.219 84.7053 414.857 84.3226L410.741 77.4626ZM406.396 82.709V106H414.396V82.709H406.396ZM410.396 102H401.725V110H410.396V102ZM405.725 106V71.4297H397.725V106H405.725ZM454.928 87.0449L457.167 90.3593L457.182 90.349L457.198 90.3385L454.928 87.0449ZM460.318 84.7598L461.272 88.6445L461.284 88.6414L461.297 88.6383L460.318 84.7598ZM474.586 84.4082L474.057 88.3731L474.062 88.3737L474.586 84.4082ZM481.881 85.8438L480.882 89.7171L486.369 91.1316L485.865 85.488L481.881 85.8438ZM480.885 82.8262L477.461 84.8946L477.471 84.9107L477.481 84.9266L480.885 82.8262ZM478.512 80.4238L476.248 83.7219L476.285 83.7472L476.323 83.7717L478.512 80.4238ZM474.879 78.8418L473.858 82.7094L473.871 82.7128L474.879 78.8418ZM463.219 78.9883L462.482 75.0568L463.219 78.9883ZM459.498 79.8672L458.399 76.0211L458.391 76.0234L458.383 76.0258L459.498 79.8672ZM456.1 81.127L452.349 82.5162L453.852 86.5754L457.78 84.7568L456.1 81.127ZM453.463 74.0078L452.114 70.2421L448.308 71.6056L449.712 75.3971L453.463 74.0078ZM457.652 72.7188L456.647 68.8472L456.634 68.8505L457.652 72.7188ZM462.252 71.7227L462.941 75.6628L462.965 75.6586L462.989 75.6541L462.252 71.7227ZM490.611 106V110H494.611V106H490.611ZM481.939 106H477.939V110H481.939V106ZM481.939 102.748H485.939V95.7621L479.915 99.2984L481.939 102.748ZM478.98 104.242L477.381 100.576L477.368 100.581L477.356 100.587L478.98 104.242ZM471.48 106.293L470.945 102.329L470.915 102.333L470.884 102.338L471.48 106.293ZM459.82 105.736L458.712 109.58L458.721 109.582L459.82 105.736ZM451.617 99.6719L448.02 101.421L448.034 101.451L448.05 101.481L451.617 99.6719ZM460.172 96.4492L456.675 98.3918L456.691 98.4201L456.707 98.4481L460.172 96.4492ZM461.578 97.8262L459.431 101.201L459.468 101.224L459.505 101.247L461.578 97.8262ZM464.039 98.793L463.051 102.669L463.095 102.68L463.14 102.691L464.039 98.793ZM472.125 98.7344L471.372 94.806L472.125 98.7344ZM476.109 97.6504L477.481 101.408L476.109 97.6504ZM481.939 94.2812L484.681 97.194L485.939 96.0095V94.2812H481.939ZM481.939 92.7578H485.939V89.7223L483.016 88.9054L481.939 92.7578ZM477.984 91.8203L477.211 95.7449L477.222 95.7471L477.984 91.8203ZM474.264 91.2344L473.735 95.1993L473.771 95.2041L473.808 95.2083L474.264 91.2344ZM470.924 90.9121L470.698 94.9057L470.702 94.906L470.924 90.9121ZM464.156 91.1465L464.941 95.0688L464.156 91.1465ZM461.549 92.0254L463.42 95.5605L463.46 95.5393L463.5 95.5172L461.549 92.0254ZM454.592 95.1016C454.592 94.0437 454.816 93.179 455.212 92.4298L448.139 88.6913C447.09 90.6765 446.592 92.8391 446.592 95.1016H454.592ZM455.212 92.4298C455.59 91.7144 456.196 91.0157 457.167 90.3593L452.688 83.7306C450.769 85.0273 449.207 86.6723 448.139 88.6913L455.212 92.4298ZM457.198 90.3385C458.155 89.6788 459.477 89.0851 461.272 88.6445L459.365 80.8751C456.863 81.4892 454.591 82.4188 452.658 83.7514L457.198 90.3385ZM461.297 88.6383C463.069 88.1911 465.248 87.9395 467.877 87.9395V79.9395C464.764 79.9395 461.903 80.2347 459.34 80.8813L461.297 88.6383ZM467.877 87.9395C469.811 87.9395 471.87 88.0815 474.057 88.3731L475.115 80.4433C472.615 80.1099 470.201 79.9395 467.877 79.9395V87.9395ZM474.062 88.3737C476.253 88.6634 478.526 89.1095 480.882 89.7171L482.879 81.9704C480.236 81.2889 477.646 80.778 475.11 80.4427L474.062 88.3737ZM485.865 85.488C485.713 83.7871 485.188 82.1822 484.289 80.7257L477.481 84.9266C477.715 85.3061 477.853 85.7129 477.897 86.1995L485.865 85.488ZM484.308 80.7577C483.4 79.2533 482.164 78.0326 480.701 77.076L476.323 83.7717C476.891 84.1431 477.237 84.524 477.461 84.8946L484.308 80.7577ZM480.775 77.1258C479.323 76.1294 477.666 75.4338 475.886 74.9708L473.871 82.7128C474.944 82.9919 475.708 83.3511 476.248 83.7219L480.775 77.1258ZM475.9 74.9742C474.093 74.4974 472.138 74.2852 470.074 74.2852V82.2852C471.604 82.2852 472.852 82.444 473.858 82.7094L475.9 74.9742ZM470.074 74.2852C468.941 74.2852 467.732 74.353 466.454 74.4808L467.25 82.4411C468.315 82.3345 469.254 82.2852 470.074 82.2852V74.2852ZM466.454 74.4808C465.159 74.6102 463.835 74.803 462.482 75.0568L463.956 82.9198C465.102 82.7048 466.2 82.546 467.25 82.4411L466.454 74.4808ZM462.482 75.0568C461.109 75.3142 459.748 75.6357 458.399 76.0211L460.597 83.7133C461.709 83.3956 462.828 83.1312 463.956 82.9198L462.482 75.0568ZM458.383 76.0258C456.995 76.4288 455.671 76.9174 454.419 77.4971L457.78 84.7568C458.637 84.36 459.58 84.0087 460.613 83.7086L458.383 76.0258ZM459.851 79.7377L457.214 72.6186L449.712 75.3971L452.349 82.5162L459.851 79.7377ZM454.812 77.7735C456.001 77.3475 457.286 76.9513 458.67 76.587L456.634 68.8505C455.05 69.2675 453.542 69.7306 452.114 70.2421L454.812 77.7735ZM458.658 76.5903C460.055 76.2273 461.483 75.918 462.941 75.6628L461.562 67.7825C459.896 68.0742 458.257 68.4289 456.647 68.8472L458.658 76.5903ZM462.989 75.6541C464.441 75.382 465.89 75.1737 467.337 75.029L466.541 67.0687C464.864 67.2364 463.188 67.4774 461.515 67.7912L462.989 75.6541ZM467.337 75.029C468.777 74.885 470.158 74.8145 471.48 74.8145V66.8145C469.874 66.8145 468.227 66.9001 466.541 67.0687L467.337 75.029ZM471.48 74.8145C477.316 74.8145 480.879 76.2999 482.998 78.5247L488.791 73.0066C484.621 68.6297 478.574 66.8145 471.48 66.8145V74.8145ZM482.998 78.5247C485.152 80.7851 486.611 84.6526 486.611 90.9414H494.611C494.611 83.5974 492.926 77.3478 488.791 73.0066L482.998 78.5247ZM486.611 90.9414V106H494.611V90.9414H486.611ZM490.611 102H481.939V110H490.611V102ZM485.939 106V102.748H477.939V106H485.939ZM479.915 99.2984C479.169 99.7359 478.327 100.163 477.381 100.576L480.58 107.908C481.783 107.384 482.913 106.815 483.964 106.198L479.915 99.2984ZM477.356 100.587C476.497 100.969 475.528 101.316 474.44 101.622L476.606 109.323C478.019 108.926 479.355 108.453 480.605 107.897L477.356 100.587ZM474.44 101.622C473.39 101.917 472.227 102.156 470.945 102.329L472.016 110.257C473.624 110.04 475.157 109.731 476.606 109.323L474.44 101.622ZM470.884 102.338C469.676 102.52 468.363 102.615 466.939 102.615V110.615C468.719 110.615 470.433 110.496 472.076 110.248L470.884 102.338ZM466.939 102.615C464.523 102.615 462.533 102.351 460.919 101.89L458.721 109.582C461.209 110.293 463.965 110.615 466.939 110.615V102.615ZM460.929 101.893C459.263 101.413 458.034 100.794 457.137 100.116L452.308 106.494C454.146 107.885 456.315 108.888 458.712 109.58L460.929 101.893ZM457.137 100.116C456.204 99.4088 455.586 98.6543 455.185 97.8629L448.05 101.481C449.055 103.463 450.507 105.13 452.308 106.494L457.137 100.116ZM455.215 97.9231C454.809 97.0887 454.592 96.1669 454.592 95.1016H446.592C446.592 97.3174 447.058 99.4426 448.02 101.421L455.215 97.9231ZM455.732 94.8086C455.732 96.099 456.074 97.3102 456.675 98.3918L463.669 94.5066C463.671 94.5107 463.689 94.5456 463.706 94.6086C463.723 94.6729 463.732 94.7425 463.732 94.8086H455.732ZM456.707 98.4481C457.405 99.6572 458.402 100.546 459.431 101.201L463.726 94.4515C463.6 94.3719 463.548 94.3228 463.542 94.3163C463.537 94.3117 463.581 94.3539 463.637 94.4503L456.707 98.4481ZM459.505 101.247C460.584 101.901 461.802 102.351 463.051 102.669L465.027 94.9169C464.284 94.7276 463.861 94.5325 463.651 94.4054L459.505 101.247ZM463.14 102.691C464.536 103.013 466.075 103.145 467.701 103.145V95.1445C466.476 95.1445 465.574 95.042 464.939 94.8954L463.14 102.691ZM467.701 103.145C469.465 103.145 471.192 102.986 472.878 102.663L471.372 94.806C470.206 95.0295 468.984 95.1445 467.701 95.1445V103.145ZM472.878 102.663C474.492 102.353 476.029 101.938 477.481 101.408L474.738 93.893C473.729 94.2613 472.609 94.5686 471.372 94.806L472.878 102.663ZM477.481 101.408C478.91 100.886 480.247 100.269 481.477 99.5454L477.421 92.6499C476.659 93.098 475.77 93.5161 474.738 93.893L477.481 101.408ZM481.477 99.5454C482.666 98.8464 483.751 98.0692 484.681 97.194L479.198 91.3685C478.8 91.7433 478.225 92.1771 477.421 92.6499L481.477 99.5454ZM485.939 94.2812V92.7578H477.939V94.2812H485.939ZM483.016 88.9054C481.587 88.5063 480.164 88.1687 478.746 87.8935L477.222 95.7471C478.422 95.9798 479.635 96.2672 480.863 96.6103L483.016 88.9054ZM478.757 87.8957C477.373 87.6231 476.027 87.4105 474.72 87.2605L473.808 95.2083C474.883 95.3317 476.017 95.5097 477.211 95.7449L478.757 87.8957ZM474.792 87.2695C473.53 87.1012 472.314 86.9832 471.146 86.9183L470.702 94.906C471.643 94.9582 472.653 95.055 473.735 95.1993L474.792 87.2695ZM471.15 86.9185C470.062 86.8569 469.076 86.8242 468.199 86.8242V94.8242C468.885 94.8242 469.715 94.8501 470.698 94.9057L471.15 86.9185ZM468.199 86.8242C466.427 86.8242 464.795 86.9395 463.372 87.2242L464.941 95.0688C465.666 94.9238 466.729 94.8242 468.199 94.8242V86.8242ZM463.372 87.2242C462.052 87.4881 460.747 87.8911 459.598 88.5336L463.5 95.5172C463.678 95.4175 464.112 95.2346 464.941 95.0688L463.372 87.2242ZM459.677 88.4902C458.56 89.0817 457.411 89.9771 456.653 91.3307L463.633 95.2396C463.421 95.6167 463.21 95.6722 463.42 95.5605L459.677 88.4902ZM456.653 91.3307C456.066 92.3783 455.732 93.5548 455.732 94.8086H463.732C463.732 94.8951 463.721 94.986 463.697 95.0721C463.675 95.157 463.647 95.2138 463.633 95.2396L456.653 91.3307Z" fill="#2C90D8"/>
<path d="M48.6301 43.5254C48.9221 44.5034 47.9001 45.7258 46.7809 45.7258C45.6616 45.7258 44.4937 44.5523 44.7857 43.5254" stroke="#7B6010" stroke-width="4" stroke-miterlimit="10" stroke-linecap="round" stroke-linejoin="round"/>
<path d="M15.4904 18C15.4904 18.8802 15.4904 19.8092 15.4418 20.7872C15.2958 23.5255 14.8578 26.2149 13.5439 30.7625C9.65083 43.965 4.05455 57.0209 2.39999 70.9081C0.891431 83.8661 3.76257 97.1176 9.11553 108.951V109" stroke="#7B6010" stroke-width="4" stroke-miterlimit="10" stroke-linecap="round" stroke-linejoin="round"/>
<path d="M78.5098 18C78.5098 18.8802 78.5098 19.8092 78.5584 20.7872C78.7044 23.5255 79.1424 26.2149 80.4563 30.7625C84.3494 43.965 89.9456 57.0209 91.6002 70.9081C93.1088 83.8661 90.2376 97.1176 84.8847 108.951V109" stroke="#7B6010" stroke-width="4" stroke-miterlimit="10" stroke-linecap="round" stroke-linejoin="round"/>
<path d="M47.1704 109V103.768L30.7222 88.1689" stroke="#7B6010" stroke-width="4" stroke-miterlimit="10" stroke-linecap="round" stroke-linejoin="round"/>
<path d="M47.1704 103.767L62.7913 88.9512" stroke="#7B6010" stroke-width="4" stroke-miterlimit="10" stroke-linecap="round" stroke-linejoin="round"/>
<path d="M83.6193 60.4932C84.2032 67.3389 80.3102 73.5979 74.5679 77.1186C68.631 80.7371 61.8668 81.4217 55.0539 81.7151C52.4261 81.8129 49.7496 81.9107 47.1218 81.9107C44.494 81.9107 41.8175 81.8618 39.1897 81.7151C32.3768 81.4217 25.6126 80.7371 19.6757 77.1186C13.9334 73.5979 10.0403 67.3389 10.6243 60.4932" stroke="#7B6010" stroke-width="4" stroke-miterlimit="10" stroke-linecap="round" stroke-linejoin="round"/>
<path d="M64.9806 68.3656C64.786 67.7788 65.0293 67.192 65.5646 66.9475C66.0999 66.703 66.6839 66.9475 66.9759 67.4854C67.2678 68.0233 67.0245 68.7079 66.4406 68.9524C65.8079 69.1969 65.1753 68.9524 64.9806 68.3656Z" fill="url(#paint0_linear_269_463)"/>
<path d="M68.0959 65.8232C67.9012 65.2365 68.1445 64.6497 68.6798 64.4052C69.2151 64.2096 69.7991 64.4052 70.0911 64.9431C70.3831 65.481 70.1397 66.1655 69.5558 66.41C68.9718 66.6545 68.3392 66.3611 68.0959 65.8232Z" fill="url(#paint1_linear_269_463)"/>
<path d="M60.5521 69.7838C60.4548 69.197 60.7955 68.6102 61.3794 68.5124C61.9147 68.3657 62.4987 68.708 62.6933 69.2948C62.8393 69.8816 62.4987 70.4683 61.9147 70.615C61.2334 70.7617 60.6495 70.3705 60.5521 69.7838Z" fill="url(#paint2_linear_269_463)"/>
<path d="M56.5623 70.371C56.5136 69.7843 56.9516 69.2464 57.5356 69.1975C58.1195 69.1486 58.6548 69.5398 58.7521 70.1265C58.8495 70.7133 58.4115 71.2512 57.8275 71.349C57.1949 71.3979 56.6596 70.9578 56.5623 70.371Z" fill="url(#paint3_linear_269_463)"/>
<path d="M52.3286 70.7135C52.3286 70.1267 52.8152 69.6377 53.3992 69.6377C53.9832 69.6377 54.4698 70.1267 54.4698 70.7135C54.4698 71.3002 53.9832 71.7892 53.3992 71.7892C52.8152 71.7892 52.3286 71.3002 52.3286 70.7135Z" fill="url(#paint4_linear_269_463)"/>
<path d="M47.8516 70.7135C47.8516 70.1267 48.3382 69.6377 48.9222 69.6377C49.5061 69.6377 49.9927 70.1267 49.9927 70.7135C49.9927 71.3002 49.5061 71.7892 48.9222 71.7892C48.3382 71.7892 47.8516 71.3002 47.8516 70.7135Z" fill="url(#paint5_linear_269_463)"/>
<path d="M43.4717 70.6158C43.4717 70.029 43.9583 69.54 44.5909 69.54C45.1749 69.54 45.6615 70.029 45.6615 70.6647C45.6615 71.2515 45.1749 71.7405 44.5423 71.7405C43.9583 71.7405 43.4717 71.2515 43.4717 70.6158Z" fill="url(#paint6_linear_269_463)"/>
<path d="M39.5301 70.5171C39.5787 69.9303 40.0654 69.4902 40.6493 69.4902C41.2333 69.5391 41.7199 70.0281 41.6712 70.6149C41.6712 71.2017 41.1359 71.6907 40.552 71.6418C39.9194 71.5929 39.4814 71.1039 39.5301 70.5171Z" fill="url(#paint7_linear_269_463)"/>
<path d="M35.5394 70.1263C35.6367 69.5395 36.172 69.0994 36.756 69.1972C37.34 69.2461 37.7779 69.784 37.7293 70.3708C37.6806 70.9576 37.1453 71.3977 36.5127 71.3488C35.8801 71.251 35.4421 70.7131 35.5394 70.1263Z" fill="url(#paint8_linear_269_463)"/>
<path d="M31.6461 69.2948C31.7921 68.708 32.376 68.3657 32.96 68.5124C33.4953 68.6591 33.8846 69.197 33.7873 69.7838C33.6899 70.3705 33.106 70.7617 32.4733 70.615C31.8407 70.4683 31.4514 69.8816 31.6461 69.2948Z" fill="url(#paint9_linear_269_463)"/>
<path d="M27.8993 67.8278C28.1913 67.2899 28.7753 67.0944 29.3106 67.29C29.7972 67.5344 30.0892 68.1212 29.8945 68.708C29.6999 69.2459 29.0186 69.5393 28.4833 69.2948C27.8993 69.0503 27.656 68.3657 27.8993 67.8278Z" fill="url(#paint10_linear_269_463)"/>
<path d="M24.5904 65.3347C24.8823 64.7968 25.4663 64.6012 26.0016 64.7968C26.4882 65.0413 26.7802 65.6281 26.5856 66.2148C26.3909 66.7527 25.7096 67.0461 25.1743 66.8016C24.5417 66.5571 24.2984 65.8726 24.5904 65.3347Z" fill="url(#paint11_linear_269_463)"/>
<defs>
<linearGradient id="paint0_linear_269_463" x1="64.9141" y1="66.56" x2="66.4151" y2="68.9223" gradientUnits="userSpaceOnUse">
<stop offset="0.0208333" stop-color="#0B4773"/>
<stop offset="0.25" stop-color="#DAC387"/>
<stop offset="0.494792" stop-color="#FBDB86"/>
<stop offset="0.697917" stop-color="#B4A374"/>
<stop offset="0.854167" stop-color="#EDD48E"/>
</linearGradient>
<linearGradient id="paint1_linear_269_463" x1="68.0293" y1="64.0422" x2="69.5032" y2="66.3916" gradientUnits="userSpaceOnUse">
<stop offset="0.0208333" stop-color="#0B4773"/>
<stop offset="0.25" stop-color="#DAC387"/>
<stop offset="0.494792" stop-color="#FBDB86"/>
<stop offset="0.697917" stop-color="#B4A374"/>
<stop offset="0.854167" stop-color="#EDD48E"/>
</linearGradient>
<linearGradient id="paint2_linear_269_463" x1="60.5356" y1="68.1895" x2="62.0091" y2="70.5431" gradientUnits="userSpaceOnUse">
<stop offset="0.0208333" stop-color="#0B4773"/>
<stop offset="0.25" stop-color="#DAC387"/>
<stop offset="0.494792" stop-color="#FBDB86"/>
<stop offset="0.697917" stop-color="#B4A374"/>
<stop offset="0.854167" stop-color="#EDD48E"/>
</linearGradient>
<linearGradient id="paint3_linear_269_463" x1="56.5586" y1="68.9054" x2="58.0195" y2="71.2645" gradientUnits="userSpaceOnUse">
<stop offset="0.0208333" stop-color="#0B4773"/>
<stop offset="0.25" stop-color="#DAC387"/>
<stop offset="0.494792" stop-color="#FBDB86"/>
<stop offset="0.697917" stop-color="#B4A374"/>
<stop offset="0.854167" stop-color="#EDD48E"/>
</linearGradient>
<linearGradient id="paint4_linear_269_463" x1="52.3286" y1="69.3508" x2="53.8012" y2="71.6661" gradientUnits="userSpaceOnUse">
<stop offset="0.0208333" stop-color="#0B4773"/>
<stop offset="0.25" stop-color="#DAC387"/>
<stop offset="0.494792" stop-color="#FBDB86"/>
<stop offset="0.697917" stop-color="#B4A374"/>
<stop offset="0.854167" stop-color="#EDD48E"/>
</linearGradient>
<linearGradient id="paint5_linear_269_463" x1="47.8516" y1="69.3508" x2="49.3242" y2="71.6661" gradientUnits="userSpaceOnUse">
<stop offset="0.0208333" stop-color="#0B4773"/>
<stop offset="0.25" stop-color="#DAC387"/>
<stop offset="0.494792" stop-color="#FBDB86"/>
<stop offset="0.697917" stop-color="#B4A374"/>
<stop offset="0.854167" stop-color="#EDD48E"/>
</linearGradient>
<linearGradient id="paint6_linear_269_463" x1="43.4717" y1="69.2466" x2="44.9778" y2="71.6146" gradientUnits="userSpaceOnUse">
<stop offset="0.0208333" stop-color="#0B4773"/>
<stop offset="0.25" stop-color="#DAC387"/>
<stop offset="0.494792" stop-color="#FBDB86"/>
<stop offset="0.697917" stop-color="#B4A374"/>
<stop offset="0.854167" stop-color="#EDD48E"/>
</linearGradient>
<linearGradient id="paint7_linear_269_463" x1="39.5264" y1="69.2029" x2="41.0002" y2="71.5241" gradientUnits="userSpaceOnUse">
<stop offset="0.0208333" stop-color="#0B4773"/>
<stop offset="0.25" stop-color="#DAC387"/>
<stop offset="0.494792" stop-color="#FBDB86"/>
<stop offset="0.697917" stop-color="#B4A374"/>
<stop offset="0.854167" stop-color="#EDD48E"/>
</linearGradient>
<linearGradient id="paint8_linear_269_463" x1="35.5259" y1="68.8944" x2="36.9961" y2="71.2581" gradientUnits="userSpaceOnUse">
<stop offset="0.0208333" stop-color="#0B4773"/>
<stop offset="0.25" stop-color="#DAC387"/>
<stop offset="0.494792" stop-color="#FBDB86"/>
<stop offset="0.697917" stop-color="#B4A374"/>
<stop offset="0.854167" stop-color="#EDD48E"/>
</linearGradient>
<linearGradient id="paint9_linear_269_463" x1="31.5957" y1="68.1895" x2="33.0647" y2="70.5521" gradientUnits="userSpaceOnUse">
<stop offset="0.0208333" stop-color="#0B4773"/>
<stop offset="0.25" stop-color="#DAC387"/>
<stop offset="0.494792" stop-color="#FBDB86"/>
<stop offset="0.697917" stop-color="#B4A374"/>
<stop offset="0.854167" stop-color="#EDD48E"/>
</linearGradient>
<linearGradient id="paint10_linear_269_463" x1="27.8057" y1="66.927" x2="29.29" y2="69.2544" gradientUnits="userSpaceOnUse">
<stop offset="0.0208333" stop-color="#0B4773"/>
<stop offset="0.25" stop-color="#DAC387"/>
<stop offset="0.494792" stop-color="#FBDB86"/>
<stop offset="0.697917" stop-color="#B4A374"/>
<stop offset="0.854167" stop-color="#EDD48E"/>
</linearGradient>
<linearGradient id="paint11_linear_269_463" x1="24.4678" y1="64.4338" x2="25.9437" y2="66.7791" gradientUnits="userSpaceOnUse">
<stop offset="0.0208333" stop-color="#0B4773"/>
<stop offset="0.25" stop-color="#DAC387"/>
<stop offset="0.494792" stop-color="#FBDB86"/>
<stop offset="0.697917" stop-color="#B4A374"/>
<stop offset="0.854167" stop-color="#EDD48E"/>
</linearGradient>
</defs>
</svg>
